<?xml version="1.0" encoding="UTF-8"?>
<svg xmlns="http://www.w3.org/2000/svg" viewBox="0 0 285.37 446.85">
  <g id="Key">
    <rect x=".5" y=".5" width="150.74" height="445.85" rx="12.07" ry="12.07" fill="#fff" stroke="#000" stroke-miterlimit="10"/>
    <path d="M24.78,111.8h-15.44c-1.65,0-2.82-1.62-2.31-3.19l3.27-9.92c.33-1,1.26-1.67,2.31-1.67h15.44c1.65,0,2.82,1.62,2.31,3.19l-3.27,9.92c-.33,1-1.26,1.67-2.31,1.67Z" stroke="#000" stroke-miterlimit="10"/>
    <g>
      <path d="M16.14,129.85v2.57s.04.02.06.02c.42,0,.82-.45,1.28-1.18-.49-.82-.91-1.33-1.34-1.41Z" fill="none"/>
      <path d="M23.87,125.54c-1.76,0-2.98.82-3.91,1.86-.75.84-1.32,1.83-1.79,2.69-.25.44-.47.83-.68,1.17-.46.73-.86,1.18-1.28,1.18-.02,0-.04-.01-.06-.02v.02h-6.35v4.28h6.35s.04,0,.06,0c1.66,0,2.84-.72,3.75-1.68.83-.88,1.44-1.95,1.95-2.87.19-.33.36-.64.52-.91.53-.89.97-1.44,1.44-1.44.42,0,.82.44,1.28,1.18.16-.27.34-.58.52-.91.51-.92,1.12-1.99,1.95-2.87-.91-.96-2.1-1.68-3.75-1.68Z" fill="#8c8c8c"/>
      <g>
        <path d="M37.3,130.5l-8.36-6.72c-.53-.43-1.32-.05-1.32.63v2.81c-.83.88-1.44,1.95-1.95,2.87-.19.33-.36.64-.52.91-.53.89-.97,1.44-1.44,1.44-.42,0-.82-.45-1.28-1.18-.16.27-.34.58-.52.91-.51.92-1.12,1.99-1.95,2.87.91.96,2.09,1.68,3.75,1.68,1.76,0,2.98-.82,3.92-1.86v2.99c0,.68.79,1.06,1.32.63l8.36-6.72c.4-.32.4-.94,0-1.26Z"/>
        <path d="M16.14,125.55h-6.35v4.3h6.35c.43.07.84.58,1.34,1.41.21-.34.43-.72.68-1.17.48-.86,1.04-1.84,1.79-2.69-.91-1.02-2.11-1.82-3.81-1.85Z"/>
      </g>
    </g>
    <rect x="12.07" y="32.88" width="15.3" height="15.3" rx="2.14" ry="2.14" transform="translate(-22.88 25.81) rotate(-45)" fill="#fff" stroke="#000"/>
    <text transform="translate(35.1 44.83)" font-family="OpenSans-Regular, &apos;Open Sans&apos;" font-size="10" font-variation-settings="&apos;wght&apos; 400, &apos;wdth&apos; 100"><tspan x="0" y="0" letter-spacing="0em">D</tspan><tspan x="7.34" y="0" letter-spacing=".01em">e</tspan><tspan x="13.06" y="0" letter-spacing="0em">c</tspan><tspan x="17.91" y="0" letter-spacing="0em">is</tspan><tspan x="25.27" y="0" letter-spacing="0em">i</tspan><tspan x="27.84" y="0" letter-spacing="0em">o</tspan><tspan x="33.93" y="0">n</tspan></text>
    <path d="M12.51,55.23h14.43c1.5,0,2.72,1.07,2.72,2.38v9.38c0,1.32-1.22,2.38-2.72,2.38h-14.43c-1.5,0-2.72-1.07-2.72-2.38v-9.38c0-1.32,1.22-2.38,2.72-2.38Z" fill="#fff" stroke="#000"/>
    <text transform="translate(35.1 85.88)" font-family="OpenSans-Regular, &apos;Open Sans&apos;" font-size="10" font-variation-settings="&apos;wght&apos; 400, &apos;wdth&apos; 100"><tspan x="0" y="0" letter-spacing=".01em">B</tspan><tspan x="6.59" y="0" letter-spacing="0em">r</tspan><tspan x="10.71" y="0" letter-spacing="0em">a</tspan><tspan x="16.32" y="0" letter-spacing="0em">n</tspan><tspan x="22.53" y="0" letter-spacing="0em">c</tspan><tspan x="27.37" y="0">h</tspan></text>
    <text transform="translate(35.1 65.88)" font-family="OpenSans-Regular, &apos;Open Sans&apos;" font-size="10" font-variation-settings="&apos;wght&apos; 400, &apos;wdth&apos; 100"><tspan x="0" y="0" letter-spacing="0em">A</tspan><tspan x="6.4" y="0" letter-spacing=".04em">c</tspan><tspan x="11.58" y="0" letter-spacing=".01em">t</tspan><tspan x="15.25" y="0" letter-spacing="0em">i</tspan><tspan x="17.82" y="0" letter-spacing="0em">o</tspan><tspan x="23.91" y="0">n</tspan></text>
    <rect x="9.79" y="166.1" width="10.68" height="10.68" rx="1.84" ry="1.84" fill="#b50000" stroke="#000" stroke-miterlimit="10"/>
    <rect x="9.79" y="182.54" width="10.68" height="10.68" rx="1.84" ry="1.84" fill="#ff6700" stroke="#000" stroke-miterlimit="10"/>
    <rect x="9.79" y="198.99" width="10.68" height="10.68" rx="1.84" ry="1.84" fill="#ffb600" stroke="#000" stroke-miterlimit="10"/>
    <rect x="9.79" y="215.43" width="10.68" height="10.68" rx="1.84" ry="1.84" fill="#fff200" stroke="#000" stroke-miterlimit="10"/>
    <rect x="9.79" y="231.87" width="10.68" height="10.68" rx="1.84" ry="1.84" fill="#8dc63f" stroke="#000" stroke-miterlimit="10"/>
    <rect x="9.79" y="248.31" width="10.68" height="10.68" rx="1.84" ry="1.84" fill="#41c476" stroke="#000" stroke-miterlimit="10"/>
    <rect x="9.79" y="264.75" width="10.68" height="10.68" rx="1.84" ry="1.84" fill="#00cfff" stroke="#000" stroke-miterlimit="10"/>
    <rect x="9.79" y="281.19" width="10.68" height="10.68" rx="1.84" ry="1.84" fill="#072" stroke="#000" stroke-miterlimit="10"/>
    <rect x="9.79" y="297.63" width="10.68" height="10.68" rx="1.84" ry="1.84" fill="#df00ff" stroke="#000" stroke-miterlimit="10"/>
    <rect x="9.79" y="314.07" width="10.68" height="10.68" rx="1.84" ry="1.84" fill="#8200ff" stroke="#000" stroke-miterlimit="10"/>
    <rect x="9.79" y="330.52" width="10.68" height="10.68" rx="1.84" ry="1.84" fill="#bb80ff" stroke="#000" stroke-miterlimit="10"/>
    <rect x="9.79" y="346.96" width="10.68" height="10.68" rx="1.84" ry="1.84" fill="#fbb3ff" stroke="#000" stroke-miterlimit="10"/>
    <text transform="translate(25.39 174.78)" font-family="OpenSans-Regular, &apos;Open Sans&apos;" font-size="10" font-variation-settings="&apos;wght&apos; 400, &apos;wdth&apos; 100"><tspan x="0" y="0" letter-spacing=".01em">B</tspan><tspan x="6.57" y="0" letter-spacing="0em">i</tspan><tspan x="9.14" y="0" letter-spacing="0em">l</tspan><tspan x="11.69" y="0" letter-spacing="0em">l</tspan><tspan x="14.28" y="0" letter-spacing="0em">e</tspan><tspan x="19.97" y="0">r</tspan></text>
    <text transform="translate(25.39 191.2)" font-family="OpenSans-Regular, &apos;Open Sans&apos;" font-size="10" font-variation-settings="&apos;wght&apos; 400, &apos;wdth&apos; 100"><tspan x="0" y="0" letter-spacing=".01em">B</tspan><tspan x="6.57" y="0" letter-spacing="0em">i</tspan><tspan x="9.14" y="0" letter-spacing="0em">l</tspan><tspan x="11.69" y="0" letter-spacing="0em">l</tspan><tspan x="14.28" y="0" letter-spacing="0em">e</tspan><tspan x="19.97" y="0">r </tspan><tspan x="26.65" y="0" letter-spacing="0em">(</tspan><tspan x="29.63" y="0" letter-spacing="0em">N</tspan><tspan x="37.24" y="0" letter-spacing="0em">C</tspan><tspan x="43.62" y="0" letter-spacing="0em">P</tspan><tspan x="49.6" y="0" letter-spacing="0em">D</tspan><tspan x="56.93" y="0" letter-spacing="0em">P</tspan><tspan x="62.86" y="0">)</tspan></text>
    <text transform="translate(25.39 207.62)" font-family="OpenSans-Regular, &apos;Open Sans&apos;" font-size="10" font-variation-settings="&apos;wght&apos; 400, &apos;wdth&apos; 100"><tspan x="0" y="0" letter-spacing="0em">P</tspan><tspan x="6.11" y="0" letter-spacing="-.02em">C</tspan><tspan x="12.21" y="0">C</tspan></text>
    <text transform="translate(25.39 224.05)" font-family="OpenSans-Regular, &apos;Open Sans&apos;" font-size="10" font-variation-settings="&apos;wght&apos; 400, &apos;wdth&apos; 100"><tspan x="0" y="0" letter-spacing="0em">I</tspan><tspan x="2.83" y="0" letter-spacing="0em">n</tspan><tspan x="9.01" y="0">s </tspan><tspan x="16.37" y="0" letter-spacing="0em">(R</tspan><tspan x="25.54" y="0" letter-spacing="0em">e</tspan><tspan x="31.24" y="0" letter-spacing="0em">l</tspan><tspan x="33.83" y="0" letter-spacing="0em">e</tspan><tspan x="39.47" y="0" letter-spacing="0em">a</tspan><tspan x="45.07" y="0" letter-spacing=".01em">se</tspan><tspan x="55.66" y="0" letter-spacing="-.02em">s</tspan><tspan x="60.18" y="0">)</tspan></text>
    <text transform="translate(25.39 240.47)" font-family="OpenSans-Regular, &apos;Open Sans&apos;" font-size="10" font-variation-settings="&apos;wght&apos; 400, &apos;wdth&apos; 100"><tspan x="0" y="0" letter-spacing="0em">P</tspan><tspan x="6.04" y="0" letter-spacing="0em">u</tspan><tspan x="12.21" y="0" letter-spacing="0em">r</tspan><tspan x="16.3" y="0" letter-spacing="0em">c</tspan><tspan x="21.15" y="0" letter-spacing="0em">h</tspan><tspan x="27.29" y="0" letter-spacing="0em">a</tspan><tspan x="32.9" y="0" letter-spacing=".01em">s</tspan><tspan x="37.77" y="0" letter-spacing="0em">e</tspan><tspan x="43.46" y="0">r</tspan></text>
    <text transform="translate(25.39 256.9)" font-family="OpenSans-Regular, &apos;Open Sans&apos;" font-size="10" font-variation-settings="&apos;wght&apos; 400, &apos;wdth&apos; 100"><tspan x="0" y="0">P</tspan><tspan x="6.02" y="0" letter-spacing="0em">h</tspan><tspan x="12.16" y="0" letter-spacing="0em">a</tspan><tspan x="17.77" y="0" letter-spacing=".01em">r</tspan><tspan x="22" y="0" letter-spacing="0em">m</tspan><tspan x="31.27" y="0" letter-spacing="0em">a</tspan><tspan x="36.9" y="0" letter-spacing=".05em">c</tspan><tspan x="42.15" y="0">y </tspan><tspan x="49.75" y="0" letter-spacing=".01em">C</tspan><tspan x="56.15" y="0" letter-spacing="0em">l</tspan><tspan x="58.74" y="0" letter-spacing="0em">e</tspan><tspan x="64.43" y="0" letter-spacing=".01em">r</tspan><tspan x="68.66" y="0">k</tspan></text>
    <path d="M151.24,11.56c0-6.11-5.81-11.06-12.97-11.06H13.47C6.31.5.5,5.45.5,11.56v13.53h150.74v-13.53Z" stroke="#000" stroke-miterlimit="10"/>
    <text transform="translate(25.39 273.32)" font-family="OpenSans-Regular, &apos;Open Sans&apos;" font-size="10" font-variation-settings="&apos;wght&apos; 400, &apos;wdth&apos; 100"><tspan x="0" y="0">P</tspan><tspan x="6.02" y="0" letter-spacing="0em">h</tspan><tspan x="12.16" y="0" letter-spacing="0em">a</tspan><tspan x="17.77" y="0" letter-spacing=".01em">r</tspan><tspan x="22" y="0" letter-spacing="0em">m</tspan><tspan x="31.27" y="0" letter-spacing="0em">a</tspan><tspan x="36.9" y="0" letter-spacing=".05em">c</tspan><tspan x="42.15" y="0">y </tspan><tspan x="49.75" y="0" letter-spacing="-.06em">T</tspan><tspan x="54.66" y="0" letter-spacing=".01em">e</tspan><tspan x="60.39" y="0" letter-spacing="0em">c</tspan><tspan x="65.23" y="0">h </tspan></text>
    <text transform="translate(25.39 289.75)" font-family="OpenSans-Regular, &apos;Open Sans&apos;" font-size="10" font-variation-settings="&apos;wght&apos; 400, &apos;wdth&apos; 100"><tspan x="0" y="0">P</tspan><tspan x="6.02" y="0" letter-spacing="0em">h</tspan><tspan x="12.16" y="0" letter-spacing="0em">a</tspan><tspan x="17.77" y="0" letter-spacing=".01em">r</tspan><tspan x="22" y="0" letter-spacing="0em">m</tspan><tspan x="31.27" y="0" letter-spacing="0em">a</tspan><tspan x="36.9" y="0" letter-spacing="0em">c</tspan><tspan x="41.75" y="0" letter-spacing="0em">i</tspan><tspan x="44.31" y="0" letter-spacing=".03em">s</tspan><tspan x="49.35" y="0">t</tspan></text>
    <text transform="translate(25.39 306.17)" font-family="OpenSans-Regular, &apos;Open Sans&apos;" font-size="10" font-variation-settings="&apos;wght&apos; 400, &apos;wdth&apos; 100"><tspan x="0" y="0" letter-spacing="0em">Q</tspan><tspan x="7.88" y="0" letter-spacing="0em">C</tspan><tspan x="14.12" y="0" letter-spacing="0em">e</tspan><tspan x="19.81" y="0">r</tspan></text>
    <text transform="translate(25.39 322.59)" font-family="OpenSans-Regular, &apos;Open Sans&apos;" font-size="10" font-variation-settings="&apos;wght&apos; 400, &apos;wdth&apos; 100"><tspan x="0" y="0" letter-spacing="0em">I</tspan><tspan x="2.83" y="0" letter-spacing="0em">n</tspan><tspan x="9.01" y="0" letter-spacing="0em">s</tspan><tspan x="13.8" y="0" letter-spacing="0em">ur</tspan><tspan x="24.09" y="0" letter-spacing="0em">a</tspan><tspan x="29.7" y="0" letter-spacing="0em">n</tspan><tspan x="35.91" y="0" letter-spacing="0em">c</tspan><tspan x="40.69" y="0">e </tspan><tspan x="48.9" y="0" letter-spacing="0em">(</tspan><tspan x="51.88" y="0" letter-spacing=".02em">I</tspan><tspan x="54.86" y="0" letter-spacing=".02em">V</tspan><tspan x="61.02" y="0" letter-spacing="0em">D</tspan><tspan x="68.35" y="0" letter-spacing=".04em">F</tspan><tspan x="73.91" y="0">)</tspan></text>
    <text transform="translate(25.39 339.02)" font-family="OpenSans-Regular, &apos;Open Sans&apos;" font-size="10" font-variation-settings="&apos;wght&apos; 400, &apos;wdth&apos; 100"><tspan x="0" y="0" letter-spacing="0em">I</tspan><tspan x="2.83" y="0" letter-spacing="0em">n</tspan><tspan x="9.01" y="0" letter-spacing="0em">s</tspan><tspan x="13.8" y="0" letter-spacing="0em">ur</tspan><tspan x="24.09" y="0" letter-spacing="0em">a</tspan><tspan x="29.7" y="0" letter-spacing="0em">n</tspan><tspan x="35.91" y="0" letter-spacing="0em">c</tspan><tspan x="40.69" y="0">e </tspan><tspan x="48.9" y="0" letter-spacing="0em">(</tspan><tspan x="51.88" y="0" letter-spacing="0em">E</tspan><tspan x="57.42" y="0" letter-spacing="0em">l</tspan><tspan x="59.98" y="0" letter-spacing="0em">i</tspan><tspan x="62.57" y="0" letter-spacing=".01em">g</tspan><tspan x="68.11" y="0" letter-spacing="-.02em">.</tspan><tspan x="70.53" y="0">)</tspan></text>
    <text transform="translate(25.39 355.44)" font-family="OpenSans-Regular, &apos;Open Sans&apos;" font-size="10" font-variation-settings="&apos;wght&apos; 400, &apos;wdth&apos; 100"><tspan x="0" y="0" letter-spacing="0em">I</tspan><tspan x="2.83" y="0" letter-spacing="0em">n</tspan><tspan x="9.01" y="0" letter-spacing="0em">s</tspan><tspan x="13.8" y="0" letter-spacing="0em">ur</tspan><tspan x="24.09" y="0" letter-spacing="0em">a</tspan><tspan x="29.7" y="0" letter-spacing="0em">n</tspan><tspan x="35.91" y="0" letter-spacing="0em">c</tspan><tspan x="40.69" y="0">e </tspan><tspan x="48.9" y="0" letter-spacing="0em">(</tspan><tspan x="51.88" y="0" letter-spacing="-.04em">P</tspan><tspan x="57.51" y="0" letter-spacing=".04em">A</tspan><tspan x="64.23" y="0" letter-spacing="-.02em">s</tspan><tspan x="68.75" y="0">)</tspan></text>
    <text transform="translate(61.44 18.11)" fill="#fff" font-family="OpenSans-Extrabold, &apos;Open Sans&apos;" font-size="15.19" font-weight="700"><tspan x="0" y="0" letter-spacing=".01em">K</tspan><tspan x="10.61" y="0" letter-spacing=".02em">E</tspan><tspan x="19.28" y="0">Y</tspan></text>
    <g>
      <g>
        <rect x="9.79" y="364.65" width="131.59" height="20.22" rx="10.11" ry="10.11" fill="#00a094" stroke="#00a094" stroke-miterlimit="10"/>
        <circle cx="19.85" cy="374.76" r="9.05" fill="#fff"/>
        <g>
          <path d="M18.44,369.39l-4.55,7.87c-.63,1.09.16,2.46,1.42,2.46h9.09c1.26,0,2.05-1.37,1.42-2.46l-4.55-7.87c-.63-1.09-2.21-1.09-2.84,0Z" fill="#ff9100" stroke="#000" stroke-miterlimit="10"/>
          <g>
            <rect x="19.08" y="370.86" width="1.56" height="5.51" rx=".78" ry=".78"/>
            <circle cx="19.85" cy="377.68" r=".78"/>
          </g>
        </g>
      </g>
      <text transform="translate(33.63 377.65)" fill="#fff" font-family="OpenSans-ExtraBold, &apos;Open Sans&apos;" font-size="10" font-weight="700"><tspan x="0" y="0" letter-spacing="0em">C</tspan><tspan x="6.56" y="0" letter-spacing="0em">h</tspan><tspan x="13.33" y="0" letter-spacing=".01em">a</tspan><tspan x="19.67" y="0" letter-spacing="0em">n</tspan><tspan x="26.44" y="0" letter-spacing="0em">g</tspan><tspan x="32.52" y="0">e </tspan><tspan x="41.3" y="0" letter-spacing=".02em">L</tspan><tspan x="47.3" y="0" letter-spacing=".02em">a</tspan><tspan x="53.7" y="0" letter-spacing=".01em">s</tspan><tspan x="58.99" y="0">t </tspan><tspan x="66.19" y="0" letter-spacing=".03em">E</tspan><tspan x="71.98" y="0" letter-spacing="0em">v</tspan><tspan x="78.04" y="0" letter-spacing=".01em">e</tspan><tspan x="84.36" y="0" letter-spacing="0em">n</tspan><tspan x="91.1" y="0">t</tspan></text>
    </g>
    <g>
      <path d="M22.34,390.32c0,.64-.12,1.18-.35,1.61-.23.43-.57.75-1.02.97-.44.22-.98.33-1.62.33h-1.55v-5.71h1.72c.58,0,1.08.11,1.5.32.42.21.74.53.97.94.23.42.34.93.34,1.54ZM21.64,390.34c0-.51-.08-.94-.26-1.27-.17-.33-.42-.58-.75-.74-.33-.16-.73-.24-1.21-.24h-.96v4.57h.81c.79,0,1.38-.19,1.77-.58.39-.39.59-.97.59-1.73Z"/>
      <path d="M27.37,391.08c0,.35-.04.67-.14.94-.09.28-.22.51-.39.7-.17.19-.38.33-.62.44-.24.1-.52.15-.83.15-.29,0-.55-.05-.79-.15-.24-.1-.44-.25-.62-.44-.17-.19-.31-.42-.4-.7-.1-.28-.14-.59-.14-.94,0-.47.08-.87.24-1.2.16-.33.39-.58.68-.75.29-.17.65-.26,1.06-.26s.73.09,1.03.26c.29.17.52.43.68.76.16.33.24.73.24,1.19ZM24.11,391.08c0,.34.04.64.14.89.09.25.23.45.42.59.19.14.44.21.73.21s.54-.07.73-.21c.19-.14.33-.33.42-.59.09-.25.14-.55.14-.89s-.04-.64-.14-.88c-.09-.25-.23-.44-.42-.58-.19-.14-.44-.2-.74-.2-.45,0-.77.15-.98.44-.21.29-.31.7-.31,1.22Z"/>
      <path d="M30.65,388.87c.51,0,.89.12,1.15.37.26.25.39.65.39,1.2v2.79h-.64v-2.75c0-.36-.08-.62-.24-.8-.16-.18-.41-.27-.75-.27-.47,0-.81.13-1,.4-.19.27-.29.66-.29,1.17v2.24h-.65v-4.28h.52l.1.62h.04c.09-.15.21-.28.35-.38.14-.1.3-.18.47-.23.17-.05.36-.08.55-.08Z"/>
      <path d="M35.32,388.87c.36,0,.68.08.94.24.26.16.46.39.6.68.14.29.21.63.21,1.02v.4h-2.96c0,.5.13.88.38,1.15.24.26.58.39,1.02.39.27,0,.51-.03.72-.07.21-.05.42-.12.65-.22v.57c-.22.1-.43.17-.64.21-.21.04-.46.07-.75.07-.41,0-.77-.08-1.08-.25-.31-.17-.54-.42-.71-.74-.17-.33-.25-.72-.25-1.2s.08-.86.23-1.2c.15-.34.37-.6.66-.78.28-.18.62-.27,1-.27ZM35.31,389.4c-.35,0-.62.11-.83.34-.21.23-.33.54-.37.95h2.27c0-.26-.04-.48-.12-.67-.08-.19-.19-.35-.35-.45-.16-.11-.36-.16-.6-.16Z"/>
      <path d="M43.73,393.22l-.76-2.49c-.03-.11-.07-.21-.1-.31-.03-.1-.06-.2-.08-.3-.03-.1-.05-.18-.07-.27s-.04-.15-.05-.21h-.03c-.01.06-.03.13-.04.21-.02.08-.04.17-.06.27-.03.1-.05.2-.08.3-.03.11-.06.21-.1.32l-.8,2.48h-.73l-1.18-4.28h.67l.62,2.36c.04.16.08.31.12.46.04.15.07.29.1.43.03.13.05.25.06.35h.03c.02-.07.03-.14.05-.23.02-.09.04-.19.07-.29.02-.1.05-.21.08-.31.03-.1.06-.2.09-.29l.79-2.48h.7l.76,2.48c.04.12.08.25.12.39.04.13.07.27.1.39.03.13.05.24.07.34h.03c0-.09.03-.2.06-.33.03-.13.06-.27.1-.43.04-.16.08-.32.12-.48l.62-2.36h.66l-1.18,4.28h-.75Z"/>
      <path d="M46.98,387.35c.11,0,.2.03.28.1.08.07.12.18.12.32s-.04.25-.12.32c-.08.07-.17.11-.28.11s-.21-.04-.28-.11-.11-.18-.11-.32.04-.25.11-.32c.07-.07.17-.1.28-.1ZM47.29,388.95v4.28h-.65v-4.28h.65Z"/>
      <path d="M50.23,392.77c.11,0,.22,0,.33-.03.11-.02.2-.04.27-.07v.5c-.08.03-.18.06-.31.09s-.27.04-.39.04c-.23,0-.43-.04-.62-.12-.19-.08-.33-.21-.44-.4-.11-.19-.17-.45-.17-.79v-2.54h-.61v-.32l.61-.25.26-.93h.39v.99h1.25v.51h-1.25v2.52c0,.27.06.47.19.6s.29.2.49.2Z"/>
      <path d="M52.51,387.15v1.82c0,.1,0,.21,0,.31s-.01.2-.03.29h.04c.09-.15.2-.28.34-.38.14-.1.29-.18.47-.23.17-.05.36-.08.55-.08.34,0,.63.05.86.16s.4.28.52.51c.12.23.17.53.17.89v2.79h-.64v-2.75c0-.36-.08-.62-.24-.8-.16-.18-.41-.27-.75-.27-.32,0-.57.06-.76.18s-.32.3-.41.53-.12.52-.12.86v2.24h-.65v-6.08h.65Z"/>
      <path d="M60.23,392.77c.11,0,.22,0,.33-.03.11-.02.2-.04.27-.07v.5c-.08.03-.18.06-.31.09s-.26.04-.39.04c-.23,0-.43-.04-.62-.12-.18-.08-.33-.21-.44-.4-.11-.19-.17-.45-.17-.79v-2.54h-.61v-.32l.61-.25.26-.93h.39v.99h1.25v.51h-1.25v2.52c0,.27.06.47.19.6s.29.2.49.2Z"/>
      <path d="M62.51,387.15v1.82c0,.1,0,.21,0,.31,0,.11-.01.2-.03.29h.04c.09-.15.2-.28.34-.38.14-.1.29-.18.47-.23.17-.05.36-.08.55-.08.34,0,.63.05.86.16s.4.28.52.51c.12.23.17.53.17.89v2.79h-.64v-2.75c0-.36-.08-.62-.24-.8-.16-.18-.41-.27-.75-.27-.32,0-.57.06-.76.18-.19.12-.32.3-.41.53s-.12.52-.12.86v2.24h-.65v-6.08h.65Z"/>
      <path d="M68.55,388.87c.36,0,.68.08.94.24.26.16.46.39.6.68.14.29.21.63.21,1.02v.4h-2.96c0,.5.13.88.38,1.15.24.26.58.39,1.02.39.27,0,.51-.03.72-.07.21-.05.42-.12.65-.22v.57c-.22.1-.43.17-.64.21-.21.04-.46.07-.75.07-.41,0-.77-.08-1.08-.25-.31-.17-.54-.42-.71-.74-.17-.33-.25-.72-.25-1.2s.08-.86.23-1.2c.15-.34.37-.6.66-.78.28-.18.62-.27,1-.27ZM68.55,389.4c-.35,0-.62.11-.83.34-.21.23-.33.54-.37.95h2.27c0-.26-.04-.48-.12-.67-.08-.19-.19-.35-.35-.45-.16-.11-.36-.16-.6-.16Z"/>
      <path d="M75.49,388.87c.53,0,.96.18,1.28.55.32.37.48.92.48,1.66,0,.49-.07.9-.22,1.23-.15.33-.35.58-.62.75-.26.17-.58.25-.94.25-.23,0-.43-.03-.6-.09-.17-.06-.32-.14-.44-.24-.12-.1-.22-.21-.3-.33h-.05c0,.1.02.22.03.37.01.14.02.27.02.38v1.76h-.65v-6.2h.54l.09.63h.03c.08-.13.18-.25.3-.36.12-.11.27-.19.44-.26.17-.06.38-.1.62-.1ZM75.38,389.42c-.3,0-.54.06-.72.17-.18.11-.31.29-.4.51-.08.23-.13.51-.13.86v.12c0,.36.04.67.12.92.08.25.21.44.39.57.18.13.43.2.74.2.27,0,.49-.07.66-.21.18-.14.31-.34.4-.6.09-.26.13-.55.13-.88,0-.51-.1-.91-.29-1.21-.2-.3-.5-.45-.9-.45Z"/>
      <path d="M80.46,388.87c.09,0,.18,0,.27.01.09,0,.18.02.25.04l-.08.6c-.07-.02-.15-.03-.23-.04-.09-.01-.17-.02-.24-.02-.17,0-.33.03-.49.1-.15.07-.29.17-.4.3s-.21.28-.27.46c-.06.18-.1.38-.1.6v2.3h-.65v-4.28h.54l.07.79h.03c.09-.16.2-.3.32-.44.12-.13.27-.24.44-.31s.35-.12.55-.12Z"/>
      <path d="M83.52,388.87c.37,0,.68.08.94.24.26.16.46.39.6.68.14.29.21.63.21,1.02v.4h-2.96c0,.5.13.88.38,1.15.24.26.58.39,1.02.39.27,0,.51-.03.72-.07.21-.05.42-.12.65-.22v.57c-.22.1-.43.17-.64.21-.21.04-.46.07-.75.07-.41,0-.77-.08-1.08-.25-.31-.17-.54-.42-.71-.74-.17-.33-.25-.72-.25-1.2s.08-.86.23-1.2c.16-.34.37-.6.66-.78.28-.18.62-.27,1-.27ZM83.51,389.4c-.35,0-.62.11-.83.34-.21.23-.33.54-.37.95h2.27c0-.26-.04-.48-.12-.67-.08-.19-.19-.35-.35-.45-.16-.11-.36-.16-.6-.16Z"/>
      <path d="M87.46,393.23l-1.62-4.28h.7l.94,2.59c.07.18.13.37.2.59.07.21.11.38.14.52h.03c.03-.13.08-.3.16-.52s.14-.41.2-.58l.94-2.59h.7l-1.63,4.28h-.74Z"/>
      <path d="M91.09,387.35c.11,0,.2.03.28.1.08.07.12.18.12.32s-.04.25-.12.32c-.08.07-.17.11-.28.11-.11,0-.21-.04-.28-.11s-.11-.18-.11-.32.04-.25.11-.32c.07-.07.17-.1.28-.1ZM91.41,388.95v4.28h-.65v-4.28h.65Z"/>
      <path d="M96.59,391.08c0,.35-.05.67-.14.94-.09.28-.22.51-.39.7-.17.19-.38.33-.62.44-.24.1-.52.15-.83.15-.29,0-.55-.05-.79-.15-.24-.1-.44-.25-.62-.44-.17-.19-.31-.42-.4-.7-.09-.28-.14-.59-.14-.94,0-.47.08-.87.24-1.2.16-.33.39-.58.68-.75.3-.17.65-.26,1.06-.26s.73.09,1.03.26c.29.17.52.43.68.76.16.33.24.73.24,1.19ZM93.33,391.08c0,.34.05.64.14.89.09.25.23.45.42.59.19.14.43.21.73.21s.54-.07.73-.21c.19-.14.33-.33.42-.59.09-.25.14-.55.14-.89s-.05-.64-.14-.88c-.09-.25-.23-.44-.42-.58-.19-.14-.44-.2-.74-.2-.45,0-.77.15-.98.44-.21.29-.31.7-.31,1.22Z"/>
      <path d="M101.39,388.95v4.28h-.53l-.09-.6h-.04c-.09.15-.2.27-.34.38s-.3.18-.47.23-.36.08-.56.08c-.34,0-.62-.05-.85-.16s-.4-.28-.52-.51c-.12-.23-.17-.52-.17-.88v-2.8h.66v2.76c0,.36.08.62.24.8s.41.26.74.26.57-.06.76-.18c.19-.12.33-.3.41-.53.08-.23.12-.52.12-.86v-2.25h.65Z"/>
      <path d="M105.67,392.06c0,.27-.07.5-.21.69-.14.19-.33.33-.59.42s-.56.14-.91.14c-.3,0-.56-.02-.78-.07s-.41-.11-.57-.2v-.6c.17.09.38.16.62.23s.49.11.74.11c.37,0,.64-.06.8-.18.17-.12.25-.28.25-.49,0-.12-.03-.22-.1-.31s-.18-.18-.33-.26c-.16-.08-.37-.18-.65-.28-.27-.1-.51-.21-.71-.31-.2-.1-.35-.23-.46-.38s-.16-.34-.16-.58c0-.36.15-.64.44-.83.29-.19.68-.29,1.15-.29.26,0,.5.03.72.08s.44.12.63.21l-.22.52c-.18-.08-.37-.14-.57-.19-.2-.05-.41-.08-.61-.08-.3,0-.53.05-.69.15-.16.1-.24.23-.24.41,0,.13.04.24.11.33s.19.17.36.24c.16.08.38.16.65.27.27.1.5.2.7.31s.35.23.45.38c.11.15.16.34.16.58Z"/>
      <path d="M110.39,388.88c.51,0,.89.11,1.14.34.25.23.37.59.37,1.1v2.91h-.47l-.12-.63h-.03c-.12.16-.25.29-.38.39s-.28.18-.45.24c-.17.05-.38.08-.63.08-.26,0-.49-.05-.69-.14-.2-.09-.36-.23-.48-.41-.12-.19-.17-.42-.17-.7,0-.43.17-.76.51-.98.34-.23.85-.35,1.55-.38l.74-.03v-.26c0-.37-.08-.63-.24-.78s-.38-.22-.67-.22c-.22,0-.44.03-.64.1-.2.06-.4.14-.58.23l-.2-.49c.19-.1.41-.18.66-.25s.51-.11.79-.11ZM111.25,391.12l-.65.03c-.53.02-.91.11-1.13.26-.22.15-.33.37-.33.65,0,.24.07.43.22.54s.34.18.59.18c.38,0,.69-.11.93-.32s.36-.53.36-.95v-.39Z"/>
      <path d="M115.09,393.31c-.39,0-.73-.08-1.02-.24-.29-.16-.52-.4-.69-.73-.16-.33-.25-.74-.25-1.23,0-.52.09-.94.26-1.27.17-.33.41-.57.72-.73.3-.16.65-.24,1.04-.24.21,0,.42.02.62.06s.36.1.49.16l-.2.54c-.13-.05-.28-.1-.45-.14-.17-.04-.33-.06-.48-.06-.3,0-.54.06-.74.19-.2.13-.34.31-.44.56-.1.25-.15.55-.15.91s.05.64.14.89c.09.24.24.43.43.56s.42.19.71.19c.23,0,.43-.02.61-.07.18-.05.35-.11.5-.17v.58c-.14.07-.3.13-.48.17s-.38.06-.63.06Z"/>
      <path d="M118.97,392.77c.11,0,.22,0,.33-.03.11-.02.2-.04.27-.07v.5c-.08.03-.18.06-.31.09-.13.02-.26.04-.39.04-.23,0-.43-.04-.62-.12-.18-.08-.33-.21-.44-.4-.11-.19-.17-.45-.17-.79v-2.54h-.61v-.32l.61-.25.26-.93h.39v.99h1.25v.51h-1.25v2.52c0,.27.06.47.19.6.12.13.29.2.49.2Z"/>
      <path d="M120.94,387.35c.11,0,.2.03.28.1.08.07.12.18.12.32s-.04.25-.12.32c-.08.07-.17.11-.28.11-.11,0-.21-.04-.28-.11s-.11-.18-.11-.32.04-.25.11-.32c.07-.07.17-.1.28-.1ZM121.25,388.95v4.28h-.65v-4.28h.65Z"/>
      <path d="M126.43,391.08c0,.35-.05.67-.14.94-.09.28-.22.51-.39.7-.17.19-.38.33-.62.44-.24.1-.52.15-.83.15-.29,0-.55-.05-.79-.15-.24-.1-.44-.25-.62-.44-.17-.19-.31-.42-.4-.7-.09-.28-.14-.59-.14-.94,0-.47.08-.87.24-1.2.16-.33.39-.58.68-.75.3-.17.65-.26,1.06-.26s.73.09,1.03.26c.29.17.52.43.68.76.16.33.24.73.24,1.19ZM123.17,391.08c0,.34.05.64.14.89.09.25.23.45.42.59.19.14.43.21.73.21s.54-.07.73-.21c.19-.14.33-.33.42-.59.09-.25.14-.55.14-.89s-.05-.64-.14-.88c-.09-.25-.23-.44-.42-.58-.19-.14-.44-.2-.74-.2-.45,0-.77.15-.98.44-.21.29-.31.7-.31,1.22Z"/>
      <path d="M129.72,388.87c.51,0,.89.12,1.15.37.26.25.39.65.39,1.2v2.79h-.64v-2.75c0-.36-.08-.62-.24-.8-.16-.18-.41-.27-.75-.27-.47,0-.81.13-1,.4-.19.27-.29.66-.29,1.17v2.24h-.65v-4.28h.52l.1.62h.04c.09-.15.21-.28.35-.38.14-.1.3-.18.47-.23.17-.05.36-.08.55-.08Z"/>
      <path d="M133.51,392.3l.05.09c-.05.19-.11.39-.18.61-.07.22-.15.43-.23.65-.08.22-.17.42-.26.61h-.48c.05-.21.11-.43.16-.66s.1-.46.14-.68c.04-.23.08-.43.1-.62h.7Z"/>
      <path d="M44.93,398.47c.53,0,.96.18,1.28.55s.48.92.48,1.66c0,.49-.07.9-.22,1.23-.15.33-.35.58-.62.75-.26.17-.58.25-.94.25-.23,0-.43-.03-.6-.09-.17-.06-.32-.14-.44-.24s-.22-.21-.3-.33h-.05c0,.1.02.22.03.37.01.14.02.27.02.38v1.76h-.65v-6.2h.54l.09.63h.03c.08-.13.19-.25.3-.36.12-.11.27-.19.44-.26.17-.06.38-.1.62-.1ZM44.81,399.02c-.3,0-.54.06-.72.17-.18.12-.31.29-.4.51-.08.23-.13.51-.13.86v.12c0,.36.04.67.12.92s.21.44.39.57c.18.13.43.2.74.2.27,0,.49-.07.66-.21.18-.14.31-.34.4-.6.09-.26.13-.55.13-.88,0-.5-.1-.91-.29-1.21-.2-.3-.5-.45-.9-.45Z"/>
      <path d="M49.9,398.47c.09,0,.18,0,.27.01.09,0,.18.02.25.04l-.08.6c-.07-.02-.15-.03-.23-.04-.09,0-.17-.02-.24-.02-.17,0-.33.04-.49.1-.15.07-.29.17-.4.3-.11.13-.2.28-.27.46-.06.18-.1.38-.1.6v2.3h-.65v-4.28h.54l.07.79h.03c.09-.16.2-.3.32-.44.12-.13.27-.24.44-.31.17-.08.35-.12.55-.12Z"/>
      <path d="M55.01,400.68c0,.35-.04.67-.14.94-.09.28-.22.51-.39.7-.17.19-.38.34-.62.44-.24.1-.52.15-.83.15-.29,0-.55-.05-.79-.15-.24-.1-.44-.25-.62-.44-.17-.19-.31-.42-.4-.7-.09-.28-.14-.59-.14-.94,0-.47.08-.87.24-1.2.16-.33.39-.58.68-.75.3-.17.65-.26,1.06-.26s.73.09,1.03.26c.29.17.52.43.68.76.16.33.24.73.24,1.19ZM51.75,400.68c0,.34.05.64.14.89.09.25.23.45.42.59.19.14.44.21.73.21s.54-.07.73-.21c.19-.14.33-.33.42-.59.09-.25.14-.55.14-.89s-.04-.64-.14-.88c-.09-.25-.23-.44-.42-.58-.19-.13-.44-.2-.74-.2-.45,0-.77.15-.98.44-.21.29-.31.7-.31,1.22Z"/>
      <path d="M60.92,398.47c.47,0,.83.12,1.07.37s.36.64.36,1.19v2.8h-.64v-2.77c0-.35-.07-.61-.22-.78-.15-.17-.37-.26-.67-.26-.41,0-.71.12-.9.36-.19.24-.28.59-.28,1.06v2.39h-.64v-2.77c0-.23-.03-.42-.1-.58-.07-.15-.17-.27-.3-.35-.13-.08-.3-.12-.5-.12-.28,0-.51.06-.68.18s-.3.29-.37.52-.12.51-.12.85v2.27h-.65v-4.28h.52l.1.61h.04c.09-.15.19-.27.32-.38s.28-.18.44-.23c.16-.05.33-.08.52-.08.33,0,.6.06.82.18s.38.31.48.55h.04c.14-.25.33-.43.58-.55s.51-.18.8-.18Z"/>
      <path d="M65.81,398.47c.53,0,.96.18,1.28.55s.48.92.48,1.66c0,.49-.07.9-.22,1.23-.15.33-.35.58-.62.75-.26.17-.58.25-.94.25-.23,0-.43-.03-.6-.09-.17-.06-.32-.14-.44-.24s-.22-.21-.3-.33h-.05c0,.1.02.22.03.37.01.14.02.27.02.38v1.76h-.65v-6.2h.54l.09.63h.03c.08-.13.19-.25.3-.36.12-.11.27-.19.44-.26.17-.06.38-.1.62-.1ZM65.69,399.02c-.3,0-.54.06-.72.17-.18.12-.31.29-.4.51-.08.23-.13.51-.13.86v.12c0,.36.04.67.12.92s.21.44.39.57c.18.13.43.2.74.2.27,0,.49-.07.66-.21.18-.14.31-.34.4-.6.09-.26.13-.55.13-.88,0-.5-.1-.91-.29-1.21-.2-.3-.5-.45-.9-.45Z"/>
      <path d="M70.2,402.37c.11,0,.22,0,.33-.03.11-.02.2-.04.27-.07v.5c-.08.03-.18.06-.31.09-.13.02-.27.04-.39.04-.23,0-.43-.04-.62-.12-.19-.08-.33-.21-.44-.4-.11-.19-.17-.45-.17-.79v-2.54h-.61v-.32l.61-.25.26-.93h.39v.99h1.25v.51h-1.25v2.52c0,.27.06.47.19.6.12.13.29.2.49.2Z"/>
      <path d="M74.73,401.66c0,.27-.07.5-.21.69-.14.19-.33.33-.59.42s-.56.14-.91.14c-.3,0-.56-.02-.78-.07s-.41-.11-.57-.2v-.6c.17.09.38.16.62.23s.49.11.74.11c.37,0,.64-.06.8-.18.17-.12.25-.28.25-.49,0-.12-.03-.22-.1-.31s-.18-.18-.33-.26c-.16-.08-.37-.18-.65-.28-.27-.1-.51-.21-.71-.31-.2-.1-.35-.23-.46-.38-.11-.15-.16-.34-.16-.58,0-.36.15-.64.44-.83.29-.19.68-.29,1.15-.29.26,0,.5.03.72.08.23.05.44.12.63.21l-.22.52c-.18-.08-.37-.14-.57-.19-.2-.05-.4-.08-.61-.08-.3,0-.53.05-.69.15-.16.1-.24.23-.24.41,0,.13.04.24.11.33s.19.17.36.24c.16.08.38.16.65.27.27.1.5.2.7.31s.35.23.45.38c.11.15.16.34.16.58Z"/>
      <path d="M79.23,402.37c.11,0,.22,0,.33-.03.11-.02.2-.04.27-.07v.5c-.08.03-.18.06-.31.09-.13.02-.26.04-.39.04-.23,0-.43-.04-.62-.12-.18-.08-.33-.21-.44-.4-.11-.19-.17-.45-.17-.79v-2.54h-.61v-.32l.61-.25.26-.93h.39v.99h1.25v.51h-1.25v2.52c0,.27.06.47.19.6.12.13.29.2.49.2Z"/>
      <path d="M81.51,396.75v1.82c0,.1,0,.21,0,.31s-.01.2-.03.29h.04c.09-.15.2-.28.34-.38.14-.1.29-.18.47-.23.17-.05.36-.08.55-.08.34,0,.63.05.86.16s.4.28.52.51c.12.23.17.53.17.89v2.79h-.64v-2.75c0-.36-.08-.62-.24-.8-.16-.18-.41-.27-.75-.27-.32,0-.57.06-.76.18s-.32.3-.41.53-.12.52-.12.86v2.24h-.65v-6.08h.65Z"/>
      <path d="M87.55,398.47c.37,0,.68.08.94.24.26.16.46.39.6.68.14.29.21.63.21,1.02v.4h-2.96c0,.5.13.89.38,1.15.24.26.58.39,1.02.39.27,0,.51-.02.72-.07.21-.05.42-.12.65-.22v.57c-.22.1-.43.17-.64.21-.21.04-.46.07-.75.07-.41,0-.77-.08-1.08-.25-.31-.17-.54-.41-.71-.74-.17-.33-.25-.72-.25-1.2s.08-.86.23-1.2c.16-.34.37-.6.66-.78.28-.18.62-.27,1-.27ZM87.55,399c-.35,0-.62.11-.83.34-.21.23-.33.54-.37.95h2.27c0-.25-.04-.48-.12-.67-.08-.19-.19-.34-.35-.45-.16-.11-.36-.16-.6-.16Z"/>
      <path d="M94.5,398.47c.51,0,.89.12,1.15.37.26.25.39.65.39,1.2v2.79h-.64v-2.75c0-.36-.08-.62-.24-.8-.16-.18-.41-.27-.75-.27-.47,0-.81.13-1,.4-.19.27-.29.66-.29,1.17v2.24h-.65v-4.28h.52l.1.62h.04c.09-.15.21-.28.35-.38.14-.1.3-.18.47-.23.17-.05.36-.08.55-.08Z"/>
      <path d="M99.17,398.47c.37,0,.68.08.94.24.26.16.46.39.6.68.14.29.21.63.21,1.02v.4h-2.96c0,.5.13.89.38,1.15.24.26.58.39,1.02.39.27,0,.51-.02.72-.07.21-.05.42-.12.65-.22v.57c-.22.1-.43.17-.64.21-.21.04-.46.07-.75.07-.41,0-.77-.08-1.08-.25-.31-.17-.54-.41-.71-.74-.17-.33-.25-.72-.25-1.2s.08-.86.23-1.2c.16-.34.37-.6.66-.78.28-.18.62-.27,1-.27ZM99.16,399c-.35,0-.62.11-.83.34-.21.23-.33.54-.37.95h2.27c0-.25-.04-.48-.12-.67-.08-.19-.19-.34-.35-.45-.16-.11-.36-.16-.6-.16Z"/>
      <path d="M103.22,400.64l-1.48-2.09h.74l1.13,1.65,1.12-1.65h.73l-1.48,2.09,1.56,2.19h-.74l-1.2-1.75-1.21,1.75h-.73l1.55-2.19Z"/>
      <path d="M108.15,402.37c.11,0,.22,0,.33-.03.11-.02.2-.04.27-.07v.5c-.08.03-.18.06-.31.09s-.26.04-.39.04c-.23,0-.43-.04-.62-.12-.18-.08-.33-.21-.44-.4-.11-.19-.17-.45-.17-.79v-2.54h-.61v-.32l.61-.25.26-.93h.39v.99h1.25v.51h-1.25v2.52c0,.27.06.47.19.6s.29.2.49.2Z"/>
    </g>
    <g>
      <g>
        <rect x="9.79" y="411.41" width="107.59" height="20.22" rx="10.11" ry="10.11" fill="#00139e" stroke="#00139e" stroke-miterlimit="10"/>
        <circle cx="19.85" cy="421.52" r="9.05" fill="#fff"/>
        <g>
          <rect x="15.38" y="414.8" width="8.95" height="13.45" rx="4.48" ry="4.48" fill="#c6c6c6" stroke="#001300" stroke-miterlimit="10"/>
          <line x1="19.85" y1="422.24" x2="19.85" y2="414.8" fill="none" stroke="#001300" stroke-linecap="round" stroke-linejoin="round"/>
          <rect x="18.93" y="418.38" width="1.86" height="2.79" rx=".93" ry=".93" fill="#919191" stroke="#001300" stroke-miterlimit="10"/>
        </g>
      </g>
      <text transform="translate(32.59 424.78)" fill="#fff" font-family="OpenSans-ExtraBold, &apos;Open Sans&apos;" font-size="10" font-weight="700"><tspan x="0" y="0" letter-spacing="0em">C</tspan><tspan x="6.56" y="0" letter-spacing=".01em">l</tspan><tspan x="9.9" y="0" letter-spacing="0em">i</tspan><tspan x="13.24" y="0" letter-spacing=".02em">c</tspan><tspan x="18.78" y="0">k </tspan><tspan x="27.97" y="0" letter-spacing="0em">Th</tspan><tspan x="40.78" y="0" letter-spacing=".02em">i</tspan><tspan x="44.19" y="0">s </tspan><tspan x="51.96" y="0" letter-spacing=".01em">I</tspan><tspan x="55.56" y="0" letter-spacing="0em">t</tspan><tspan x="60.26" y="0" letter-spacing=".01em">e</tspan><tspan x="66.58" y="0">m</tspan></text>
    </g>
    <text transform="translate(18.14 440.75)" font-family="OpenSans-Regular, &apos;Open Sans&apos;" font-size="8" font-variation-settings="&apos;wght&apos; 400, &apos;wdth&apos; 100"><tspan x="0" y="0" letter-spacing=".02em">D</tspan><tspan x="5.97" y="0" letter-spacing=".02em">on</tspan><tspan x="15.97" y="0">e </tspan><tspan x="22.54" y="0" letter-spacing=".03em">w</tspan><tspan x="28.94" y="0" letter-spacing=".02em">i</tspan><tspan x="31.15" y="0" letter-spacing=".02em">t</tspan><tspan x="34.16" y="0">h </tspan><tspan x="41.14" y="0" letter-spacing=".02em">t</tspan><tspan x="44.16" y="0" letter-spacing=".02em">h</tspan><tspan x="49.2" y="0">e </tspan><tspan x="55.77" y="0" letter-spacing=".02em">p</tspan><tspan x="60.81" y="0" letter-spacing=".01em">r</tspan><tspan x="64.17" y="0" letter-spacing=".02em">e</tspan><tspan x="68.81" y="0" letter-spacing=".03em">v</tspan><tspan x="73.06" y="0" letter-spacing=".01em">i</tspan><tspan x="75.19" y="0" letter-spacing=".02em">o</tspan><tspan x="80.15" y="0" letter-spacing=".02em">u</tspan><tspan x="85.19" y="0">s </tspan><tspan x="91.08" y="0" letter-spacing=".02em">a</tspan><tspan x="95.67" y="0" letter-spacing=".05em">c</tspan><tspan x="99.89" y="0" letter-spacing=".02em">t</tspan><tspan x="102.9" y="0" letter-spacing=".01em">i</tspan><tspan x="105.04" y="0" letter-spacing=".02em">o</tspan><tspan x="109.99" y="0">n</tspan></text>
    <polygon points="26.12 74.56 13.32 74.56 8.97 82.55 13.32 90.53 26.12 90.53 30.47 82.55 26.12 74.56" stroke="#000" stroke-width=".71"/>
    <text transform="translate(35.93 107.5)" font-family="OpenSans-Regular, &apos;Open Sans&apos;" font-size="10" font-variation-settings="&apos;wght&apos; 400, &apos;wdth&apos; 100"><tspan x="0" y="0" letter-spacing="-.01em">W</tspan><tspan x="9.12" y="0" letter-spacing="0em">o</tspan><tspan x="15.21" y="0" letter-spacing=".01em">r</tspan><tspan x="19.44" y="0" letter-spacing=".05em">k</tspan><tspan x="25.15" y="0" letter-spacing=".01em">fl</tspan><tspan x="31.14" y="0" letter-spacing="0em">o</tspan><tspan x="37.21" y="0">w </tspan><tspan x="47.56" y="0" letter-spacing=".01em">Q</tspan><tspan x="55.46" y="0" letter-spacing="0em">ueu</tspan><tspan x="73.55" y="0">e </tspan><tspan x="81.76" y="0" letter-spacing=".04em">(</tspan><tspan x="85.12" y="0" letter-spacing=".01em">W</tspan><tspan x="94.48" y="0" letter-spacing=".02em">F</tspan><tspan x="99.85" y="0" letter-spacing="0em">Q</tspan><tspan x="107.66" y="0">)</tspan></text>
    <text transform="translate(41.93 153.13)" font-family="OpenSans-Regular, &apos;Open Sans&apos;" font-size="10" font-variation-settings="&apos;wght&apos; 400, &apos;wdth&apos; 100"><tspan x="0" y="0">P</tspan><tspan x="6.02" y="0" letter-spacing="0em">r</tspan><tspan x="10.11" y="0" letter-spacing=".01em">o</tspan><tspan x="16.24" y="0" letter-spacing="0em">c</tspan><tspan x="21.03" y="0" letter-spacing=".01em">ee</tspan><tspan x="32.47" y="0">d </tspan><tspan x="41.19" y="0" letter-spacing="0em">t</tspan><tspan x="44.74" y="0">o </tspan><tspan x="53.35" y="0" letter-spacing="0em">N</tspan><tspan x="60.96" y="0" letter-spacing="0em">e</tspan><tspan x="66.67" y="0">w </tspan><tspan x="77.02" y="0" letter-spacing=".01em">W</tspan><tspan x="86.38" y="0" letter-spacing=".02em">F</tspan><tspan x="91.75" y="0">Q</tspan></text>
    <text transform="translate(41.93 133.13)" font-family="OpenSans-Regular, &apos;Open Sans&apos;" font-size="10" font-variation-settings="&apos;wght&apos; 400, &apos;wdth&apos; 100"><tspan x="0" y="0" letter-spacing="0em">S</tspan><tspan x="5.46" y="0" letter-spacing=".02em">w</tspan><tspan x="13.37" y="0" letter-spacing=".01em">i</tspan><tspan x="16.03" y="0" letter-spacing="0em">t</tspan><tspan x="19.61" y="0" letter-spacing="0em">c</tspan><tspan x="24.46" y="0">h </tspan><tspan x="33.19" y="0" letter-spacing=".01em">W</tspan><tspan x="42.55" y="0" letter-spacing=".02em">F</tspan><tspan x="47.92" y="0">Q</tspan></text>
    <g>
      <path d="M27.15,156.92c0,.71.83,1.11,1.38.66l8.76-7.03c.42-.34.42-.98,0-1.32l-8.76-7.03c-.56-.45-1.38-.05-1.38.66v14.07Z"/>
      <rect x="9.65" y="145.28" width="18.21" height="4.03"/>
      <rect x="9.65" y="150.46" width="18.21" height="4.03"/>
    </g>
  </g>
  <g id="biller_names">
    <g>
      <g>
        <g>
          <path d="M274.89,168.55h-100.05c-5.51,0-9.98,4.47-9.98,9.98v3.22h120v-3.22c0-5.51-4.47-9.98-9.98-9.98Z" fill="#b50000" stroke="#b50000" stroke-miterlimit="10"/>
          <path d="M274.38,227.28h-99.03c-5.79,0-10.48-4.69-10.48-10.48v-35.05h120v35.05c0,5.79-4.69,10.48-10.48,10.48Z" fill="#fff" stroke="#b50000" stroke-miterlimit="10"/>
        </g>
        <text transform="translate(181.49 178.93)" fill="#fff" font-family="OpenSans-Semibold, &apos;Open Sans&apos;" font-size="10" font-weight="600"><tspan x="0" y="0" letter-spacing="0em">B</tspan><tspan x="6.69" y="0" letter-spacing="0em">i</tspan><tspan x="9.51" y="0" letter-spacing="0em">l</tspan><tspan x="12.32" y="0" letter-spacing="0em">l</tspan><tspan x="15.19" y="0" letter-spacing="0em">e</tspan><tspan x="21.04" y="0" letter-spacing=".02em">r</tspan><tspan x="25.55" y="0">s</tspan></text>
        <circle cx="169.68" cy="175.15" r="9.05" fill="#fff" stroke="#b50000" stroke-miterlimit="10"/>
        <path d="M170.45,178.8v1.53h-.99v-1.5c-.76-.03-1.72-.25-2.34-.5l-.29-1.62.04-.02c.78.41,1.91.69,2.74.69.97,0,1.64-.29,1.64-.81,0-.36-.3-.58-.76-.73l-2.04-.54c-1.15-.37-1.54-1.21-1.54-2.02,0-1.31,1.02-2.13,2.56-2.28v-1.22h.99v1.21c.81.06,1.64.25,2.05.49v1.53c-.62-.4-1.6-.6-2.39-.6-1.06,0-1.44.35-1.44.85,0,.23.09.59.71.78l1.97.55c1.03.28,1.65.98,1.65,1.95,0,1.25-1.03,2.05-2.55,2.24Z"/>
      </g>
      <text transform="translate(191.4 196.58)" font-family="OpenSans-Regular, &apos;Open Sans&apos;" font-size="10" font-variation-settings="&apos;wght&apos; 400, &apos;wdth&apos; 100"><tspan x="0" y="0" letter-spacing=".02em">B</tspan><tspan x="6.63" y="0" letter-spacing="0em">ai</tspan><tspan x="14.79" y="0" letter-spacing="0em">l</tspan><tspan x="17.38" y="0" letter-spacing="0em">e</tspan><tspan x="23.07" y="0">y </tspan><tspan x="30.68" y="0" letter-spacing=".02em">K</tspan><tspan x="37.05" y="0" letter-spacing="0em">i</tspan><tspan x="39.62" y="0" letter-spacing="0em">ll</tspan><tspan x="44.73" y="0" letter-spacing="0em">mo</tspan><tspan x="60.16" y="0">n</tspan></text>
    </g>
  </g>
  <g id="biller_ncpdp_names">
    <g>
      <g>
        <g>
          <path d="M174.84,184.99h100.05c5.51,0,9.98,4.47,9.98,9.98v3.22h-120v-3.22c0-5.51,4.47-9.98,9.98-9.98Z" fill="#ff6700" stroke="#ff6700" stroke-miterlimit="10"/>
          <path d="M274.38,301.43h-99.03c-5.79,0-10.48-65.4-10.48-71.19v-32.05h120v32.05c0,5.79-4.69,71.19-10.48,71.19Z" fill="#fff" stroke="#ff6700" stroke-miterlimit="10"/>
        </g>
        <text transform="translate(181.49 195.37)" font-family="OpenSans-Semibold, &apos;Open Sans&apos;" font-size="10" font-weight="600"><tspan x="0" y="0" letter-spacing="0em">B</tspan><tspan x="6.69" y="0" letter-spacing="0em">i</tspan><tspan x="9.51" y="0" letter-spacing="0em">l</tspan><tspan x="12.32" y="0" letter-spacing="0em">l</tspan><tspan x="15.19" y="0" letter-spacing="0em">e</tspan><tspan x="21.04" y="0" letter-spacing=".02em">r</tspan><tspan x="25.55" y="0">s </tspan><tspan x="33.01" y="0" letter-spacing="0em">(</tspan><tspan x="36.2" y="0" letter-spacing="0em">N</tspan><tspan x="44.12" y="0" letter-spacing="0em">C</tspan><tspan x="50.51" y="0" letter-spacing="0em">P</tspan><tspan x="56.64" y="0" letter-spacing="0em">D</tspan><tspan x="64.03" y="0" letter-spacing="0em">P</tspan><tspan x="70.1" y="0">)</tspan></text>
        <circle cx="169.68" cy="191.59" r="9.05" fill="#fff" stroke="#ff6700" stroke-miterlimit="10"/>
        <g>
          <path d="M166.16,195.17v1.28h-.83v-1.25c-.63-.03-1.43-.2-1.95-.42l-.24-1.34.03-.02c.65.34,1.59.57,2.28.57.81,0,1.36-.24,1.36-.67,0-.3-.25-.49-.63-.6l-1.69-.45c-.95-.31-1.29-1-1.29-1.68,0-1.09.85-1.77,2.13-1.9v-1.01h.83v1c.67.05,1.36.2,1.7.41v1.28c-.52-.33-1.33-.5-1.99-.5-.89,0-1.2.29-1.2.71,0,.19.08.49.59.65l1.64.46c.86.23,1.37.82,1.37,1.63,0,1.04-.86,1.7-2.12,1.86Z"/>
          <path d="M175.28,188.52v6.81h-.44l-3.96-3.89v3.89h-1.5v-6.81h.43l3.97,4.01v-4.01h1.5Z"/>
        </g>
      </g>
      <text transform="translate(198.49 210.87)" font-family="OpenSans-Regular, &apos;Open Sans&apos;" font-size="10" font-variation-settings="&apos;wght&apos; 400, &apos;wdth&apos; 100"><tspan x="0" y="0" letter-spacing="0em">N</tspan><tspan x="7.45" y="0" letter-spacing="0em">a</tspan><tspan x="12.96" y="0" letter-spacing="0em">m</tspan><tspan x="22.2" y="0" letter-spacing="-.01em">e </tspan><tspan x="30.21" y="0" letter-spacing="0em">He</tspan><tspan x="43.14" y="0" letter-spacing="-.01em">re</tspan></text>
    </g>
  </g>
  <g id="pcc_names">
    <g>
      <g>
        <g>
          <g>
            <path d="M274.89,201.44h-100.05c-5.51,0-9.98,4.47-9.98,9.98v3.22h120v-3.22c0-5.51-4.47-9.98-9.98-9.98Z" fill="#ffb600" stroke="#ffb600" stroke-miterlimit="10"/>
            <path d="M164.87,214.63h120v96.75c0,5.79-4.7,10.48-10.48,10.48h-99.03c-5.79,0-10.48-4.7-10.48-10.48v-96.75h0Z" fill="#fff" stroke="#ffb600" stroke-miterlimit="10"/>
          </g>
          <text transform="translate(181.49 211.81)" font-family="OpenSans-Semibold, &apos;Open Sans&apos;" font-size="10" font-weight="600"><tspan x="0" y="0" letter-spacing=".01em">P</tspan><tspan x="6.26" y="0" letter-spacing="-.01em">C</tspan><tspan x="12.47" y="0" letter-spacing="0em">C</tspan><tspan x="18.91" y="0">s</tspan></text>
          <circle cx="169.68" cy="208.03" r="9.05" fill="#fff" stroke="#ffb600" stroke-miterlimit="10"/>
        </g>
        <g>
          <path d="M169.71,210.51h-.07c-2.04,0-3.72,1.12-3.72,3.16v.55c1.11.62,2.39.98,3.75.98s2.64-.36,3.75-.98v-.55c0-2.04-1.67-3.16-3.72-3.16Z"/>
          <circle cx="169.68" cy="206.57" r="3.51"/>
          <path d="M175.15,205.78c0-.47-.39-.86-.86-.86-.03,0-.06.02-.09.02-.67-1.86-2.43-3.19-4.52-3.19s-3.85,1.34-4.52,3.19c-.03,0-.06-.02-.09-.02-.47,0-.86.39-.86.86v.95c0,.47.39.86.86.86s.86-.39.86-.86v-.95c0-.12-.03-.24-.08-.35.49-1.66,2.01-2.88,3.83-2.88s3.34,1.22,3.83,2.88c-.05.11-.08.22-.08.35v.95c0,.37.24.68.56.8-.12.33-.32.62-.58.85-.12-.01-.24,0-.33.1l-.24.24c-.16.16-.16.42,0,.57.16.16.42.16.57,0l.24-.24c.08-.08.11-.18.11-.28.37-.34.65-.77.79-1.25.34-.12.59-.43.59-.8v-.95Z"/>
        </g>
      </g>
      <text transform="translate(192.53 228.69)" font-family="OpenSans-Regular, &apos;Open Sans&apos;" font-size="10" font-variation-settings="&apos;wght&apos; 400, &apos;wdth&apos; 100"><tspan x="0" y="0" letter-spacing="0em">Ne</tspan><tspan x="13.3" y="0" letter-spacing="0em">l</tspan><tspan x="15.86" y="0" letter-spacing=".02em">l</tspan><tspan x="18.6" y="0">y </tspan><tspan x="26.2" y="0" letter-spacing="0em">N</tspan><tspan x="33.81" y="0" letter-spacing="0em">e</tspan><tspan x="39.53" y="0" letter-spacing="0em">v</tspan><tspan x="44.61" y="0" letter-spacing="0em">a</tspan><tspan x="50.22" y="0">r</tspan><tspan x="54.3" y="0" letter-spacing="0em">e</tspan><tspan x="59.99" y="0">z</tspan><tspan x="-4.11" y="12" letter-spacing=".04em">A</tspan><tspan x="2.61" y="12" letter-spacing="0em">s</tspan><tspan x="7.43" y="12" letter-spacing="0em">h</tspan><tspan x="13.61" y="12" letter-spacing="0em">l</tspan><tspan x="16.2" y="12" letter-spacing="0em">e</tspan><tspan x="21.89" y="12">y </tspan><tspan x="29.5" y="12" letter-spacing=".02em">A</tspan><tspan x="36.07" y="12">r</tspan><tspan x="40.16" y="12" letter-spacing="0em">e</tspan><tspan x="45.85" y="12" letter-spacing="0em">ll</tspan><tspan x="50.97" y="12" letter-spacing="0em">a</tspan><tspan x="56.58" y="12" letter-spacing="0em">n</tspan><tspan x="62.77" y="12">o</tspan><tspan x="1.59" y="24" letter-spacing="-.07em">T</tspan><tspan x="6.4" y="24" letter-spacing="0em">a</tspan><tspan x="12.01" y="24" letter-spacing="0em">n</tspan><tspan x="18.18" y="24" letter-spacing="0em">i</tspan><tspan x="20.7" y="24">a </tspan><tspan x="28.85" y="24" letter-spacing=".01em">C</tspan><tspan x="35.3" y="24" letter-spacing="0em">a</tspan><tspan x="40.91" y="24" letter-spacing=".01em">rr</tspan><tspan x="49.36" y="24" letter-spacing="0em">i</tspan><tspan x="51.93" y="24" letter-spacing="0em">l</tspan><tspan x="54.49" y="24" letter-spacing="0em">l</tspan><tspan x="57.07" y="24">o</tspan><tspan x="-.37" y="36" letter-spacing=".01em">B</tspan><tspan x="6.21" y="36">r</tspan><tspan x="10.3" y="36" letter-spacing="0em">e</tspan><tspan x="15.99" y="36" letter-spacing="0em">n</tspan><tspan x="22.21" y="36" letter-spacing="0em">d</tspan><tspan x="28.34" y="36">a </tspan><tspan x="36.5" y="36" letter-spacing=".01em">F</tspan><tspan x="41.8" y="36" letter-spacing="0em">l</tspan><tspan x="44.39" y="36" letter-spacing="0em">o</tspan><tspan x="50.48" y="36">r</tspan><tspan x="54.57" y="36" letter-spacing="0em">e</tspan><tspan x="60.28" y="36">s</tspan><tspan x="-10.38" y="48" letter-spacing="0em">M</tspan><tspan x="-1.31" y="48" letter-spacing="0em">e</tspan><tspan x="4.39" y="48" letter-spacing="0em">l</tspan><tspan x="6.98" y="48">e </tspan><tspan x="15.19" y="48" letter-spacing="0em">M</tspan><tspan x="24.21" y="48" letter-spacing="0em">a</tspan><tspan x="29.82" y="48" letter-spacing=".01em">k</tspan><tspan x="35.19" y="48" letter-spacing="0em">a</tspan><tspan x="40.8" y="48" letter-spacing=".01em">k</tspan><tspan x="46.18" y="48" letter-spacing="0em">a</tspan><tspan x="51.79" y="48" letter-spacing=".01em">u</tspan><tspan x="58.07" y="48" letter-spacing="0em">f</tspan><tspan x="61.49" y="48" letter-spacing="0em">a</tspan><tspan x="67.1" y="48" letter-spacing=".02em">k</tspan><tspan x="72.53" y="48">i</tspan><tspan x="-15.14" y="60" letter-spacing="0em">M</tspan><tspan x="-6.07" y="60" letter-spacing=".01em">o</tspan><tspan x=".05" y="60" letter-spacing="0em">a</tspan><tspan x="5.66" y="60" letter-spacing="0em">n</tspan><tspan x="11.8" y="60">a </tspan><tspan x="19.96" y="60" letter-spacing="0em">M</tspan><tspan x="28.97" y="60" letter-spacing="0em">a</tspan><tspan x="34.58" y="60" letter-spacing=".01em">k</tspan><tspan x="39.96" y="60" letter-spacing="0em">a</tspan><tspan x="45.57" y="60" letter-spacing=".01em">k</tspan><tspan x="50.94" y="60" letter-spacing="0em">a</tspan><tspan x="56.55" y="60" letter-spacing=".01em">u</tspan><tspan x="62.83" y="60" letter-spacing="0em">f</tspan><tspan x="66.25" y="60" letter-spacing="0em">a</tspan><tspan x="71.86" y="60" letter-spacing=".02em">k</tspan><tspan x="77.29" y="60">i</tspan><tspan x="-3.36" y="72" letter-spacing="0em">M</tspan><tspan x="5.71" y="72" letter-spacing="0em">e</tspan><tspan x="11.41" y="72" letter-spacing="0em">li</tspan><tspan x="16.53" y="72" letter-spacing=".01em">s</tspan><tspan x="21.44" y="72" letter-spacing=".02em">s</tspan><tspan x="26.4" y="72">a </tspan><tspan x="34.55" y="72" letter-spacing=".01em">O</tspan><tspan x="42.44" y="72" letter-spacing="0em">b</tspan><tspan x="48.64" y="72" letter-spacing="0em">l</tspan><tspan x="51.2" y="72" letter-spacing=".01em">i</tspan><tspan x="53.86" y="72" letter-spacing=".02em">t</tspan><tspan x="57.67" y="72" letter-spacing="0em">a</tspan><tspan x="63.27" y="72">s</tspan><tspan x="5.06" y="84" letter-spacing="0em">M</tspan><tspan x="14.08" y="84" letter-spacing="0em">a</tspan><tspan x="19.67" y="84" letter-spacing=".02em">y</tspan><tspan x="24.89" y="84" letter-spacing="0em">r</tspan><tspan x="29.01" y="84">a </tspan><tspan x="37.17" y="84" letter-spacing="-.02em">V</tspan><tspan x="42.9" y="84" letter-spacing="0em">e</tspan><tspan x="48.61" y="84" letter-spacing="0em">g</tspan><tspan x="54.06" y="84">a</tspan></text>
    </g>
  </g>
  <g id="insrel_names">
    <g>
      <g>
        <g>
          <path d="M174.84,217.88h100.05c5.51,0,9.98,4.47,9.98,9.98v3.22h-120v-3.22c0-5.51,4.47-9.98,9.98-9.98Z" fill="#fff200" stroke="#fff200" stroke-miterlimit="10"/>
          <path d="M164.87,231.07h120v37.05c0,5.79-4.7,10.48-10.48,10.48h-99.03c-5.79,0-10.48-4.7-10.48-10.48v-37.05h0Z" fill="#fff" stroke="#fff200" stroke-miterlimit="10"/>
        </g>
        <circle cx="169.68" cy="224.48" r="9.05" fill="#fff" stroke="#fff200" stroke-miterlimit="10"/>
        <text transform="translate(181.49 228.25)" font-family="OpenSans-Semibold, &apos;Open Sans&apos;" font-size="10" font-weight="600"><tspan x="0" y="0" letter-spacing="-.02em">I</tspan><tspan x="2.84" y="0" letter-spacing="-.01em">n</tspan><tspan x="9.05" y="0" letter-spacing="-.02em">s</tspan><tspan x="13.72" y="0" letter-spacing="-.02em">u</tspan><tspan x="19.85" y="0" letter-spacing="-.03em">r</tspan><tspan x="23.9" y="0" letter-spacing="-.02em">a</tspan><tspan x="29.49" y="0" letter-spacing="-.02em">n</tspan><tspan x="35.66" y="0" letter-spacing="-.02em">c</tspan><tspan x="40.37" y="0" letter-spacing="-.03em">e </tspan><tspan x="48.23" y="0" letter-spacing="-.02em">(R</tspan><tspan x="57.33" y="0" letter-spacing="-.01em">e</tspan><tspan x="62.94" y="0" letter-spacing="-.02em">l</tspan><tspan x="65.55" y="0" letter-spacing="-.02em">e</tspan><tspan x="71.11" y="0" letter-spacing="-.01em">a</tspan><tspan x="76.76" y="0" letter-spacing="-.02em">s</tspan><tspan x="81.47" y="0" letter-spacing="-.01em">e</tspan><tspan x="87.11" y="0" letter-spacing="-.05em">s</tspan><tspan x="91.49" y="0" letter-spacing="-.03em">)</tspan></text>
        <path d="M173.58,233.32v-2.58c-1.18.57-2.51.9-3.91.9-2.01,0-3.86-.66-5.37-1.77v3.45h9.27Z" fill="none"/>
        <path d="M173.58,230.75v-10.79h-6.39v2.72h-2.89v7.19c1.5,1.11,3.35,1.77,5.37,1.77,1.4,0,2.72-.33,3.91-.9Z" fill="#fff"/>
        <polygon points="166.45 221.93 166.45 220.2 164.73 221.93 166.45 221.93" fill="#fff"/>
        <path d="M166.39,219.2l-2.83,2.83v7.22c.24.22.49.43.75.62v-7.19h2.89v-2.72h6.39v10.79c.26-.12.51-.26.75-.4v-11.14h-7.95ZM166.45,221.93h-1.72l1.72-1.72v1.72Z"/>
        <path d="M172.42,229.06l-.07.13h-1.38l-1.75-2h-.49v2h-1.26v-5.98h2.16c1.43,0,2.38.79,2.38,1.97,0,.86-.54,1.57-1.42,1.86l1.82,2.02ZM168.74,226.2h.76c.79,0,1.25-.41,1.25-.96s-.46-.93-1.25-.93h-.76v1.89Z"/>
      </g>
      <text transform="translate(198.49 245.75)" font-family="OpenSans-Regular, &apos;Open Sans&apos;" font-size="10" font-variation-settings="&apos;wght&apos; 400, &apos;wdth&apos; 100"><tspan x="0" y="0" letter-spacing="0em">N</tspan><tspan x="7.45" y="0" letter-spacing="0em">a</tspan><tspan x="12.96" y="0" letter-spacing="0em">m</tspan><tspan x="22.2" y="0" letter-spacing="-.01em">e </tspan><tspan x="30.21" y="0" letter-spacing="0em">He</tspan><tspan x="43.14" y="0" letter-spacing="-.01em">re</tspan></text>
    </g>
  </g>
  <g id="purchaser_names">
    <g>
      <g>
        <g>
          <path d="M174.84,234.32h100.05c5.51,0,9.98,4.47,9.98,9.98v3.22h-120v-3.22c0-5.51,4.47-9.98,9.98-9.98Z" fill="#8dc63f" stroke="#8dc63f" stroke-miterlimit="10"/>
          <path d="M164.87,247.51h120v36.05c0,5.79-4.7,10.48-10.48,10.48h-99.03c-5.79,0-10.48-4.7-10.48-10.48v-36.05h0Z" fill="#fff" stroke="#8dc63f" stroke-miterlimit="10"/>
        </g>
        <circle cx="169.68" cy="240.92" r="9.05" fill="#fff" stroke="#8dc63f" stroke-miterlimit="10"/>
        <text transform="translate(181.49 244.69)" font-family="OpenSans-Semibold, &apos;Open Sans&apos;" font-size="10" font-weight="600"><tspan x="0" y="0" letter-spacing="0em">P</tspan><tspan x="6.16" y="0" letter-spacing="0em">u</tspan><tspan x="12.54" y="0" letter-spacing="0em">r</tspan><tspan x="16.9" y="0" letter-spacing="0em">c</tspan><tspan x="21.88" y="0" letter-spacing="0em">h</tspan><tspan x="28.26" y="0" letter-spacing=".01em">a</tspan><tspan x="34.16" y="0" letter-spacing="0em">se</tspan><tspan x="44.97" y="0" letter-spacing=".02em">r</tspan><tspan x="49.48" y="0">s</tspan></text>
        <path d="M173.58,249.76v-2.58c-1.18.57-2.51.9-3.91.9-2.01,0-3.86-.66-5.37-1.77v3.45h9.27Z" fill="none"/>
        <path d="M173.58,247.19v-10.79h-6.39v2.72h-2.89v7.19c1.5,1.11,3.35,1.77,5.37,1.77,1.4,0,2.72-.33,3.91-.9Z" fill="#fff"/>
        <g>
          <path d="M167.2,246.91c-.94,0-1.71-.77-1.71-1.71v-6.03c0-.78.53-1.46,1.27-1.65v-.4c-.36-.15-.6-.5-.6-.9v-.33c0-.54.44-.97.97-.97h4.42c.54,0,.97.44.97.97v.33c0,.39-.24.75-.6.9v.4c.74.2,1.27.88,1.27,1.65v6.03c0,.94-.77,1.71-1.71,1.71h-4.29ZM166.04,245.2c0,.64.52,1.15,1.15,1.15h4.29c.64,0,1.15-.52,1.15-1.15v-.3h-6.6v.3ZM172.63,238.96c-.09-.49-.5-.88-1.01-.94l-.25-.03v-1.33l.24-.03c.2-.03.36-.2.36-.41v-.33c0-.23-.19-.41-.41-.41h-4.42c-.23,0-.41.19-.41.41v.33c0,.21.15.38.36.41l.24.03v1.33l-.25.03c-.51.06-.92.44-1.01.94h6.56Z"/>
          <path d="M171.56,235.02c.48,0,.87.39.87.87v.33c0,.38-.25.71-.6.83v.55c.74.16,1.27.81,1.27,1.58v6.03c0,.89-.72,1.61-1.61,1.61h-4.3c-.89,0-1.61-.72-1.61-1.61v-6.03c0-.77.54-1.42,1.27-1.58v-.55c-.35-.12-.6-.45-.6-.83v-.33c0-.48.39-.87.87-.87h4.42M165.95,239.06h6.79c-.05-.59-.51-1.07-1.11-1.14l-.16-.02v-1.15l.15-.02c.25-.03.44-.25.44-.51v-.33c0-.28-.23-.51-.51-.51h-4.42c-.28,0-.51.23-.51.51v.33c0,.25.19.47.44.51l.15.02v1.15l-.16.02c-.6.07-1.06.55-1.11,1.14M167.2,246.46h4.3c.69,0,1.25-.56,1.25-1.25v-.4h-6.8v.4c0,.69.56,1.25,1.25,1.25M171.56,234.82h-4.42c-.59,0-1.07.48-1.07,1.07v.33c0,.41.24.78.6.96v.26c-.75.23-1.27.93-1.27,1.73v6.03c0,1,.81,1.81,1.81,1.81h4.3c1,0,1.81-.81,1.81-1.81v-6.03c0-.79-.53-1.5-1.27-1.73v-.26c.36-.18.6-.55.6-.96v-.33c0-.59-.48-1.07-1.07-1.07h0ZM166.19,238.86c.12-.39.47-.69.89-.74l.16-.02.18-.02v-1.51l-.17-.02-.15-.02c-.15-.02-.27-.15-.27-.31v-.33c0-.17.14-.31.31-.31h4.42c.17,0,.31.14.31.31v.33c0,.16-.12.29-.27.31l-.15.02-.17.02v1.51l.18.02.16.02c.42.05.77.34.89.74h-6.31ZM166.14,245h6.4v.2c0,.58-.47,1.05-1.05,1.05h-4.3c-.58,0-1.05-.47-1.05-1.05v-.2h0Z"/>
        </g>
      </g>
      <text transform="translate(195.13 261.44)" font-family="OpenSans-Regular, &apos;Open Sans&apos;" font-size="10" font-variation-settings="&apos;wght&apos; 400, &apos;wdth&apos; 100"><tspan x="0" y="0" letter-spacing="0em">J</tspan><tspan x="2.69" y="0" letter-spacing="0em">e</tspan><tspan x="8.3" y="0" letter-spacing="0em">s</tspan><tspan x="13.12" y="0" letter-spacing="0em">s</tspan><tspan x="17.81" y="0" letter-spacing="0em">i</tspan><tspan x="20.29" y="0" letter-spacing="0em">c</tspan><tspan x="25.17" y="0" letter-spacing="-.01em">a </tspan><tspan x="33.12" y="0" letter-spacing="-.07em">T</tspan><tspan x="37.93" y="0" letter-spacing="0em">r</tspan><tspan x="41.92" y="0" letter-spacing="0em">o</tspan><tspan x="47.91" y="0" letter-spacing="0em">n</tspan><tspan x="54" y="0" letter-spacing="-.01em">t</tspan><tspan x="-1.17" y="12" letter-spacing=".01em">A</tspan><tspan x="5.29" y="12" letter-spacing="0em">l</tspan><tspan x="7.75" y="12" letter-spacing="0em">b</tspan><tspan x="13.88" y="12" letter-spacing="0em">e</tspan><tspan x="19.47" y="12" letter-spacing=".04em">r</tspan><tspan x="23.93" y="12" letter-spacing="-.01em">t</tspan><tspan x="27.38" y="12" letter-spacing="0em">o </tspan><tspan x="35.79" y="12" letter-spacing="0em">O</tspan><tspan x="43.58" y="12" letter-spacing=".04em">r</tspan><tspan x="48.04" y="12" letter-spacing="0em">t</tspan><tspan x="51.61" y="12" letter-spacing="0em">i</tspan><tspan x="54.05" y="12" letter-spacing="-.01em">z</tspan><tspan x="-5.36" y="24" letter-spacing="0em">Mi</tspan><tspan x="6.04" y="24" letter-spacing="0em">c</tspan><tspan x="10.79" y="24" letter-spacing="0em">h</tspan><tspan x="16.9" y="24" letter-spacing="0em">e</tspan><tspan x="22.5" y="24" letter-spacing="0em">l</tspan><tspan x="24.95" y="24" letter-spacing="0em">l</tspan><tspan x="27.44" y="24" letter-spacing="-.01em">e </tspan><tspan x="35.45" y="24" letter-spacing=".01em">S</tspan><tspan x="41.04" y="24" letter-spacing="0em">ae</tspan><tspan x="52.17" y="24" letter-spacing="0em">n</tspan><tspan x="58.24" y="24" letter-spacing="-.01em">z</tspan></text>
    </g>
  </g>
  <g id="pharmclerk_names">
    <g>
      <g>
        <g>
          <path d="M174.84,250.76h100.05c5.51,0,9.98,4.47,9.98,9.98v3.22h-120v-3.22c0-5.51,4.47-9.98,9.98-9.98Z" fill="#41c476" stroke="#41c476" stroke-miterlimit="10"/>
          <path d="M164.87,263.96h120v36.05c0,5.79-4.7,10.48-10.48,10.48h-99.03c-5.79,0-10.48-4.7-10.48-10.48v-36.05h0Z" fill="#fff" stroke="#41c476" stroke-miterlimit="10"/>
        </g>
        <circle cx="169.68" cy="257.36" r="9.05" fill="#fff" stroke="#41c476" stroke-miterlimit="10"/>
        <text transform="translate(181.49 261.14)" font-family="OpenSans-Semibold, &apos;Open Sans&apos;" font-size="10" font-weight="600"><tspan x="0" y="0" letter-spacing="0em">P</tspan><tspan x="6.14" y="0" letter-spacing="0em">h</tspan><tspan x="12.51" y="0" letter-spacing="0em">a</tspan><tspan x="18.35" y="0" letter-spacing="0em">r</tspan><tspan x="22.75" y="0" letter-spacing="0em">m</tspan><tspan x="32.33" y="0" letter-spacing="0em">a</tspan><tspan x="38.21" y="0" letter-spacing=".04em">c</tspan><tspan x="43.55" y="0">y </tspan><tspan x="51.51" y="0" letter-spacing="0em">C</tspan><tspan x="57.91" y="0" letter-spacing="0em">l</tspan><tspan x="60.77" y="0" letter-spacing="0em">e</tspan><tspan x="66.63" y="0" letter-spacing="0em">r</tspan><tspan x="71.02" y="0" letter-spacing=".03em">k</tspan><tspan x="77.02" y="0">s</tspan></text>
        <path d="M173.58,266.21v-2.58c-1.18.57-2.51.9-3.91.9-2.01,0-3.86-.66-5.37-1.77v3.45h9.27Z" fill="none"/>
        <g>
          <path d="M175.27,254.07h-6.19l-.5-.63c-.11-.13-.26-.21-.43-.21h-1.69c-.16,0-.32.08-.43.21l-.5.63h-.35c-.23,0-.42.2-.42.45v7.06c0,.25.19.45.42.45h10.09c.23,0,.42-.2.42-.45v-7.06c0-.25-.19-.45-.42-.45Z" stroke="#000" stroke-miterlimit="10" stroke-width=".75"/>
          <path d="M174.93,262.03h-9.78c-.3,0-.54-.26-.54-.58l-1.47-5.78c0-.32.24-.58.54-.58h10.51c.3,0,.54.26.54.58l.73,5.78c0,.32-.24.58-.54.58Z" fill="#fff" stroke="#000" stroke-miterlimit="10" stroke-width=".5"/>
        </g>
      </g>
      <text transform="translate(198.52 278.34)" font-family="OpenSans-Regular, &apos;Open Sans&apos;" font-size="10" font-variation-settings="&apos;wght&apos; 400, &apos;wdth&apos; 100"><tspan x="0" y="0" letter-spacing=".02em">R</tspan><tspan x="6.4" y="0" letter-spacing="0em">y</tspan><tspan x="11.4" y="0" letter-spacing="0em">a</tspan><tspan x="16.91" y="0" letter-spacing="0em">n </tspan><tspan x="25.44" y="0" letter-spacing="0em">R</tspan><tspan x="31.53" y="0" letter-spacing="0em">e</tspan><tspan x="37.13" y="0" letter-spacing="0em">y</tspan><tspan x="42.07" y="0" letter-spacing="0em">e</tspan><tspan x="47.69" y="0" letter-spacing="-.01em">s</tspan></text>
    </g>
  </g>
  <g id="pharmtech_names">
    <g>
      <g>
        <g>
          <path d="M174.84,267.2h100.05c5.51,0,9.98,4.47,9.98,9.98v3.22h-120v-3.22c0-5.51,4.47-9.98,9.98-9.98Z" fill="#00cfff" stroke="#00cfff" stroke-miterlimit="10"/>
          <path d="M164.87,280.4h120v32.05c0,5.79-4.7,10.48-10.48,10.48h-99.03c-5.79,0-10.48-4.7-10.48-10.48v-32.05h0Z" fill="#fff" stroke="#00cfff" stroke-miterlimit="10"/>
        </g>
        <circle cx="169.68" cy="273.8" r="9.05" fill="#fff" stroke="#00cfff" stroke-miterlimit="10"/>
        <text transform="translate(181.49 277.57)" font-family="OpenSans-Semibold, &apos;Open Sans&apos;" font-size="10" font-weight="600"><tspan x="0" y="0" letter-spacing="0em">P</tspan><tspan x="6.14" y="0" letter-spacing="0em">h</tspan><tspan x="12.51" y="0" letter-spacing="0em">a</tspan><tspan x="18.35" y="0" letter-spacing="0em">r</tspan><tspan x="22.75" y="0" letter-spacing="0em">m</tspan><tspan x="32.33" y="0" letter-spacing="0em">a</tspan><tspan x="38.21" y="0" letter-spacing=".04em">c</tspan><tspan x="43.55" y="0">y </tspan><tspan x="51.51" y="0" letter-spacing="-.06em">T</tspan><tspan x="56.59" y="0" letter-spacing=".01em">e</tspan><tspan x="62.47" y="0" letter-spacing="0em">c</tspan><tspan x="67.45" y="0">h</tspan></text>
        <path d="M173.58,282.65v-2.58c-1.18.57-2.51.9-3.91.9-2.01,0-3.86-.66-5.37-1.77v3.45h9.27Z" fill="none"/>
        <g>
          <polygon points="174.4 272.04 167.76 272.04 165.51 270.9 172.15 270.9 174.4 272.04" stroke="#000" stroke-linecap="round" stroke-linejoin="round" stroke-width=".75"/>
          <polygon points="167.52 278.68 165.51 276.78 165.51 271.02 167.52 272.04 167.52 278.68" fill="none" stroke="#000" stroke-linecap="round" stroke-linejoin="round" stroke-width=".75"/>
          <rect x="167.76" y="272.04" width="6.64" height="6.64" fill="none" stroke="#000" stroke-linecap="round" stroke-linejoin="round" stroke-width=".75"/>
          <polygon points="174.4 272.04 167.76 272.04 168.99 274.32 175.8 274.32 174.4 272.04" fill="#fff" stroke="#000" stroke-linecap="round" stroke-linejoin="round" stroke-width=".75"/>
          <polygon points="167.76 272.26 165.91 273.68 163.56 272.04 165.32 270.9 167.76 272.26" fill="#fff" stroke="#000" stroke-linecap="round" stroke-linejoin="round" stroke-width=".75"/>
        </g>
      </g>
      <text transform="translate(198.64 293.88)" font-family="OpenSans-Regular, &apos;Open Sans&apos;" font-size="10" font-variation-settings="&apos;wght&apos; 400, &apos;wdth&apos; 100"><tspan x="0" y="0" letter-spacing=".02em">R</tspan><tspan x="6.4" y="0" letter-spacing="0em">y</tspan><tspan x="11.4" y="0" letter-spacing="0em">a</tspan><tspan x="16.91" y="0" letter-spacing="0em">n </tspan><tspan x="25.44" y="0" letter-spacing="0em">R</tspan><tspan x="31.53" y="0" letter-spacing="0em">e</tspan><tspan x="37.13" y="0" letter-spacing="0em">y</tspan><tspan x="42.07" y="0" letter-spacing="0em">e</tspan><tspan x="47.69" y="0" letter-spacing="-.01em">s</tspan><tspan x="1.48" y="12" letter-spacing=".01em">K</tspan><tspan x="7.75" y="12" letter-spacing="0em">i</tspan><tspan x="10.22" y="12" letter-spacing="-.01em">m </tspan><tspan x="21.87" y="12" letter-spacing="0em">F</tspan><tspan x="27.11" y="12" letter-spacing="0em">i</tspan><tspan x="29.6" y="12" letter-spacing="0em">g</tspan><tspan x="35.05" y="12" letter-spacing="0em">l</tspan><tspan x="37.51" y="12" letter-spacing="0em">i</tspan><tspan x="39.98" y="12" letter-spacing="0em">o</tspan><tspan x="45.98" y="12" letter-spacing="0em">l</tspan><tspan x="48.44" y="12" letter-spacing="-.01em">i</tspan><tspan x="-4.38" y="24" letter-spacing="-.01em">D</tspan><tspan x="2.78" y="24" letter-spacing="0em">a</tspan><tspan x="8.29" y="24" letter-spacing="0em">n</tspan><tspan x="14.36" y="24" letter-spacing="0em">i</tspan><tspan x="16.83" y="24" letter-spacing="0em">e</tspan><tspan x="22.43" y="24" letter-spacing="-.01em">l </tspan><tspan x="27.35" y="24" letter-spacing="0em">G</tspan><tspan x="34.6" y="24" letter-spacing="0em">a</tspan><tspan x="40.11" y="24" letter-spacing="0em">r</tspan><tspan x="44.1" y="24" letter-spacing="0em">c</tspan><tspan x="48.85" y="24" letter-spacing="-.01em">i</tspan><tspan x="51.27" y="24" letter-spacing="-.01em">a</tspan></text>
    </g>
  </g>
  <g id="pharmacist_names">
    <g>
      <g>
        <g>
          <path d="M174.84,283.64h100.05c5.51,0,9.98,4.47,9.98,9.98v3.22h-120v-3.22c0-5.51,4.47-9.98,9.98-9.98Z" fill="#072" stroke="#072" stroke-miterlimit="10"/>
          <path d="M164.87,296.84h120v50.05c0,5.79-4.7,10.48-10.48,10.48h-99.03c-5.79,0-10.48-4.7-10.48-10.48v-50.05h0Z" fill="#fff" stroke="#072" stroke-miterlimit="10"/>
        </g>
        <circle cx="169.68" cy="290.24" r="9.05" fill="#fff" stroke="#072" stroke-miterlimit="10"/>
        <text transform="translate(181.49 294.02)" fill="#fff" font-family="OpenSans-Semibold, &apos;Open Sans&apos;" font-size="10" font-weight="600"><tspan x="0" y="0" letter-spacing="0em">P</tspan><tspan x="6.14" y="0" letter-spacing="0em">h</tspan><tspan x="12.51" y="0" letter-spacing="0em">a</tspan><tspan x="18.35" y="0" letter-spacing="0em">r</tspan><tspan x="22.75" y="0" letter-spacing="0em">m</tspan><tspan x="32.33" y="0" letter-spacing="0em">a</tspan><tspan x="38.21" y="0" letter-spacing="0em">c</tspan><tspan x="43.18" y="0" letter-spacing="0em">i</tspan><tspan x="46.07" y="0" letter-spacing=".02em">s</tspan><tspan x="51.17" y="0" letter-spacing=".02em">t</tspan><tspan x="55.31" y="0">s</tspan></text>
        <path d="M173.58,299.09v-2.58c-1.18.57-2.51.9-3.91.9-2.01,0-3.86-.66-5.37-1.77v3.45h9.27Z" fill="none"/>
        <path d="M173.78,289.68c-.77,0-1.37.74-1.89,1.62-.46-.94-.95-1.77-1.31-1.96v-.03c1.11-.26,1.77-1.13,1.77-1.96,0-.99-.74-1.74-2.24-1.74h-3.81l-.08.49.62.34-.83,5.22-.71.28-.05.29h3.06l.05-.29-.64-.28.31-2h.18c1.05,0,1.89,1.47,2.43,2.91v-.02c-.3.58-.82,1.19-1.11,1.19-.21,0-.3-.2-.58-.2-.44,0-.69.46-.69.77,0,.43.27.72.7.72.79,0,1.4-.85,1.92-1.76.23.75.36,1.42.38,1.76h2.42l.06-.29-.63-.28c-.05-.35-.43-1.42-.91-2.5.29-.58.77-1.06,1.03-1.06.21,0,.29.24.58.24.44,0,.69-.44.69-.75,0-.42-.27-.72-.71-.72ZM169.21,288.86h-1.05l.39-2.43h1.05c.7,0,.99.39.99,1,0,.56-.41,1.43-1.38,1.43Z"/>
      </g>
      <text transform="translate(192.57 312.89)" font-family="OpenSans-Regular, &apos;Open Sans&apos;" font-size="10" font-variation-settings="&apos;wght&apos; 400, &apos;wdth&apos; 100"><tspan x="0" y="0" letter-spacing="0em">Ja</tspan><tspan x="8.34" y="0" letter-spacing="0em">m</tspan><tspan x="17.68" y="0" letter-spacing="0em">e</tspan><tspan x="23.39" y="0">s </tspan><tspan x="30.75" y="0" letter-spacing="0em">Ho</tspan><tspan x="44.29" y="0" letter-spacing="0em">m</tspan><tspan x="53.56" y="0" letter-spacing="0em">a</tspan><tspan x="59.17" y="0">n</tspan><tspan x="-8.11" y="12" letter-spacing="0em">D</tspan><tspan x="-.78" y="12" letter-spacing="0em">i</tspan><tspan x="1.79" y="12" letter-spacing="0em">e</tspan><tspan x="7.48" y="12">m </tspan><tspan x="19.34" y="12" letter-spacing=".01em">Q</tspan><tspan x="27.24" y="12" letter-spacing=".02em">u</tspan><tspan x="33.58" y="12" letter-spacing="0em">y</tspan><tspan x="38.63" y="12" letter-spacing="0em">e</tspan><tspan x="44.31" y="12">n </tspan><tspan x="53.04" y="12" letter-spacing=".03em">L</tspan><tspan x="58.55" y="12" letter-spacing="0em">a</tspan><tspan x="64.16" y="12">m</tspan><tspan x="3.87" y="24" letter-spacing=".01em">G</tspan><tspan x="11.27" y="24" letter-spacing="0em">r</tspan><tspan x="15.4" y="24" letter-spacing="0em">a</tspan><tspan x="21.03" y="24" letter-spacing="0em">c</tspan><tspan x="25.81" y="24">e </tspan><tspan x="34.03" y="24" letter-spacing="0em">M</tspan><tspan x="43.1" y="24" letter-spacing="0em">o</tspan><tspan x="49.21" y="24" letter-spacing="0em">o</tspan><tspan x="55.3" y="24">n</tspan><tspan x="8.7" y="36">Pr</tspan><tspan x="18.81" y="36" letter-spacing=".01em">e</tspan><tspan x="24.53" y="36" letter-spacing="0em">e</tspan><tspan x="30.24" y="36" letter-spacing=".01em">t</tspan><tspan x="33.91" y="36">i </tspan><tspan x="39.03" y="36" letter-spacing="-.02em">V</tspan><tspan x="44.76" y="36" letter-spacing=".01em">e</tspan><tspan x="50.48" y="36">d</tspan></text>
    </g>
  </g>
  <g id="qcer_names">
    <g>
      <g>
        <g>
          <path d="M174.84,300.08h100.05c5.51,0,9.98,4.47,9.98,9.98v3.22h-120v-3.22c0-5.51,4.47-9.98,9.98-9.98Z" fill="#df00ff" stroke="#df00ff" stroke-miterlimit="10"/>
          <path d="M164.87,313.28h120v27.05c0,5.79-4.7,10.48-10.48,10.48h-99.03c-5.79,0-10.48-4.7-10.48-10.48v-27.05h0Z" fill="#fff" stroke="#df00ff" stroke-miterlimit="10"/>
        </g>
        <circle cx="169.68" cy="306.68" r="9.05" fill="#fff" stroke="#df00ff" stroke-miterlimit="10"/>
        <text transform="translate(181.49 310.46)" fill="#fff" font-family="OpenSans-Semibold, &apos;Open Sans&apos;" font-size="10" font-weight="600"><tspan x="0" y="0" letter-spacing="0em">Q</tspan><tspan x="7.97" y="0" letter-spacing="0em">C</tspan><tspan x="14.29" y="0" letter-spacing="0em">e</tspan><tspan x="20.15" y="0" letter-spacing=".02em">r</tspan><tspan x="24.66" y="0">s</tspan></text>
        <path d="M173.58,315.53v-2.58c-1.18.57-2.51.9-3.91.9-2.01,0-3.86-.66-5.37-1.77v3.45h9.27Z" fill="none"/>
        <g>
          <g>
            <polygon points="167.85 313.06 167.17 311.62 165.76 312.35 167.69 306.96 169.57 307.6 167.85 313.06"/>
            <polygon points="171.51 313.06 172.19 311.62 173.6 312.35 171.66 306.96 169.79 307.6 171.51 313.06"/>
          </g>
          <g>
            <polygon points="169.68 301.06 170.86 300.31 171.5 301.55 172.9 301.49 172.84 302.89 174.08 303.53 173.33 304.71 174.08 305.89 172.84 306.53 172.9 307.93 171.5 307.87 170.86 309.12 169.68 308.36 168.5 309.12 167.85 307.87 166.45 307.93 166.52 306.53 165.27 305.89 166.03 304.71 165.27 303.53 166.52 302.89 166.45 301.49 167.85 301.55 168.5 300.31 169.68 301.06"/>
            <circle cx="169.68" cy="304.71" r="3.08" fill="#fff"/>
          </g>
        </g>
      </g>
      <text transform="translate(185.05 329.38)" font-family="OpenSans-Regular, &apos;Open Sans&apos;" font-size="10" font-variation-settings="&apos;wght&apos; 400, &apos;wdth&apos; 100"><tspan x="0" y="0" letter-spacing=".02em">K</tspan><tspan x="6.32" y="0" letter-spacing="0em">a</tspan><tspan x="11.95" y="0" letter-spacing=".01em">t</tspan><tspan x="15.62" y="0" letter-spacing="0em">h</tspan><tspan x="21.77" y="0">y </tspan><tspan x="29.38" y="0" letter-spacing="0em">M</tspan><tspan x="38.45" y="0" letter-spacing=".01em">c</tspan><tspan x="43.35" y="0" letter-spacing="0em">C</tspan><tspan x="49.62" y="0" letter-spacing="0em">r</tspan><tspan x="53.71" y="0" letter-spacing="0em">o</tspan><tspan x="59.79" y="0" letter-spacing="0em">s</tspan><tspan x="64.61" y="0" letter-spacing=".05em">k</tspan><tspan x="70.38" y="0">y</tspan></text>
    </g>
  </g>
  <g id="insivdf_names">
    <g>
      <g>
        <g>
          <path d="M174.84,316.52h100.05c5.51,0,9.98,4.47,9.98,9.98v3.22h-120v-3.22c0-5.51,4.47-9.98,9.98-9.98Z" fill="#8200ff" stroke="#8200ff" stroke-miterlimit="10"/>
          <path d="M164.87,329.72h120v28.05c0,5.79-4.7,10.48-10.48,10.48h-99.03c-5.79,0-10.48-4.7-10.48-10.48v-28.05h0Z" fill="#fff" stroke="#8200ff" stroke-miterlimit="10"/>
        </g>
        <text transform="translate(181.49 326.9)" font-family="OpenSans-Semibold, &apos;Open Sans&apos;" font-size="10" font-weight="600"><tspan x="0" y="0" letter-spacing="0em">I</tspan><tspan x="3.09" y="0" letter-spacing=".01em">n</tspan><tspan x="9.55" y="0" letter-spacing="0em">s</tspan><tspan x="14.47" y="0" letter-spacing="0em">u</tspan><tspan x="20.85" y="0" letter-spacing="0em">r</tspan><tspan x="25.15" y="0" letter-spacing="0em">a</tspan><tspan x="30.99" y="0" letter-spacing="0em">n</tspan><tspan x="37.41" y="0" letter-spacing="0em">c</tspan><tspan x="42.37" y="0">e</tspan></text>
        <circle cx="169.68" cy="323.12" r="9.05" fill="#fff" stroke="#8200ff" stroke-miterlimit="10"/>
        <text transform="translate(181.49 326.9)" fill="#fff" font-family="OpenSans-Semibold, &apos;Open Sans&apos;" font-size="10" font-weight="600"><tspan x="0" y="0" letter-spacing="0em">I</tspan><tspan x="3.09" y="0" letter-spacing=".01em">n</tspan><tspan x="9.55" y="0" letter-spacing="0em">s</tspan><tspan x="14.47" y="0" letter-spacing="0em">u</tspan><tspan x="20.85" y="0" letter-spacing="0em">r</tspan><tspan x="25.15" y="0" letter-spacing="0em">a</tspan><tspan x="30.99" y="0" letter-spacing="0em">n</tspan><tspan x="37.41" y="0" letter-spacing="0em">c</tspan><tspan x="42.37" y="0">e </tspan><tspan x="50.73" y="0" letter-spacing="0em">(</tspan><tspan x="53.91" y="0" letter-spacing=".02em">IV</tspan><tspan x="63.56" y="0" letter-spacing="0em">D</tspan><tspan x="70.95" y="0" letter-spacing=".03em">F</tspan><tspan x="76.59" y="0">)</tspan></text>
        <path d="M173.58,331.97v-2.58c-1.18.57-2.51.9-3.91.9-2.01,0-3.86-.66-5.37-1.77v3.45h9.27Z" fill="none"/>
        <path d="M173.58,329.39v-10.79h-6.39v2.72h-2.89v7.19c1.5,1.11,3.35,1.77,5.37,1.77,1.4,0,2.72-.33,3.91-.9Z" fill="#fff"/>
        <path d="M166.39,317.85l-2.83,2.83v7.22c.24.22.49.43.75.62v-7.19h2.89v-2.72h6.39v10.79c.26-.12.51-.26.75-.4v-11.14h-7.95ZM166.45,320.57h-1.72l1.72-1.72v1.72Z"/>
        <path d="M170.34,322.97v3.76h.83v1.11h-2.97v-1.11h.83v-3.76h-.83v-1.11h2.97v1.11h-.83Z"/>
      </g>
      <text transform="translate(197.34 344.76)" font-family="OpenSans-Regular, &apos;Open Sans&apos;" font-size="10" font-variation-settings="&apos;wght&apos; 400, &apos;wdth&apos; 100"><tspan x="0" y="0" letter-spacing="0em">N</tspan><tspan x="7.55" y="0" letter-spacing="0em">a</tspan><tspan x="13.16" y="0" letter-spacing="0em">m</tspan><tspan x="22.5" y="0">e </tspan><tspan x="30.71" y="0" letter-spacing="0em">He</tspan><tspan x="43.84" y="0">re</tspan></text>
    </g>
  </g>
  <g id="inselig_names">
    <g>
      <g>
        <g>
          <path d="M174.84,332.97h100.05c5.51,0,9.98,4.47,9.98,9.98v3.22h-120v-3.22c0-5.51,4.47-9.98,9.98-9.98Z" fill="#bb80ff" stroke="#bb80ff" stroke-miterlimit="10"/>
          <path d="M164.87,346.16h120v30.05c0,5.79-4.7,10.48-10.48,10.48h-99.03c-5.79,0-10.48-4.7-10.48-10.48v-30.05h0Z" fill="#fff" stroke="#bb80ff" stroke-miterlimit="10"/>
        </g>
        <text transform="translate(181.49 343.34)" font-family="OpenSans-Semibold, &apos;Open Sans&apos;" font-size="10" font-weight="600"><tspan x="0" y="0" letter-spacing="0em">I</tspan><tspan x="3.09" y="0" letter-spacing=".01em">n</tspan><tspan x="9.55" y="0" letter-spacing="0em">s</tspan><tspan x="14.47" y="0" letter-spacing="0em">u</tspan><tspan x="20.85" y="0" letter-spacing="0em">r</tspan><tspan x="25.15" y="0" letter-spacing="0em">a</tspan><tspan x="30.99" y="0" letter-spacing="0em">n</tspan><tspan x="37.41" y="0" letter-spacing="0em">c</tspan><tspan x="42.37" y="0">e</tspan></text>
        <circle cx="169.68" cy="339.56" r="9.05" fill="#fff" stroke="#bb80ff" stroke-miterlimit="10"/>
        <text transform="translate(181.49 343.34)" font-family="OpenSans-Semibold, &apos;Open Sans&apos;" font-size="10" font-weight="600"><tspan x="0" y="0" letter-spacing="0em">I</tspan><tspan x="3.09" y="0" letter-spacing=".01em">n</tspan><tspan x="9.55" y="0" letter-spacing="0em">s</tspan><tspan x="14.47" y="0" letter-spacing="0em">u</tspan><tspan x="20.85" y="0" letter-spacing="0em">r</tspan><tspan x="25.15" y="0" letter-spacing="0em">a</tspan><tspan x="30.99" y="0" letter-spacing="0em">n</tspan><tspan x="37.41" y="0" letter-spacing="0em">c</tspan><tspan x="42.37" y="0">e </tspan><tspan x="50.73" y="0" letter-spacing="0em">(</tspan><tspan x="53.92" y="0" letter-spacing="0em">El</tspan><tspan x="62.34" y="0" letter-spacing="0em">i</tspan><tspan x="65.19" y="0" letter-spacing=".01em">g</tspan><tspan x="70.87" y="0" letter-spacing="-.01em">.</tspan><tspan x="73.49" y="0">)</tspan></text>
        <path d="M173.58,348.41v-2.58c-1.18.57-2.51.9-3.91.9-2.01,0-3.86-.66-5.37-1.77v3.45h9.27Z" fill="none"/>
        <path d="M173.58,345.84v-10.79h-6.39v2.72h-2.89v7.19c1.5,1.11,3.35,1.77,5.37,1.77,1.4,0,2.72-.33,3.91-.9Z" fill="#fff"/>
        <polygon points="166.45 337.02 166.45 335.29 164.73 337.02 166.45 337.02" fill="#fff"/>
        <path d="M166.39,334.29l-2.83,2.83v7.22c.24.22.49.43.75.62v-7.19h2.89v-2.72h6.39v10.79c.26-.12.51-.26.75-.4v-11.14h-7.95ZM166.45,337.02h-1.72l1.72-1.72v1.72Z"/>
        <path d="M169.14,339.46v1.35h2.37v1.02h-2.37v1.29h2.5v1.16h-3.82v-5.98h3.82v1.16h-2.5Z"/>
      </g>
      <text transform="translate(198.37 358.75)" font-family="OpenSans-Regular, &apos;Open Sans&apos;" font-size="10" font-variation-settings="&apos;wght&apos; 400, &apos;wdth&apos; 100"><tspan x="0" y="0" letter-spacing="0em">N</tspan><tspan x="7.45" y="0" letter-spacing="0em">a</tspan><tspan x="12.96" y="0" letter-spacing="0em">m</tspan><tspan x="22.2" y="0" letter-spacing="-.01em">e </tspan><tspan x="30.21" y="0" letter-spacing="0em">He</tspan><tspan x="43.14" y="0" letter-spacing="-.01em">re</tspan></text>
    </g>
  </g>
  <g id="inspa_names">
    <g>
      <g>
        <g>
          <path d="M174.84,349.41h100.05c5.51,0,9.98,4.47,9.98,9.98v3.22h-120v-3.22c0-5.51,4.47-9.98,9.98-9.98Z" fill="#fbb3ff" stroke="#fbb3ff" stroke-miterlimit="10"/>
          <path d="M274.38,404.14h-99.03c-5.79,0-10.48-4.69-10.48-10.48v-31.05h120v31.05c0,5.79-4.69,10.48-10.48,10.48Z" fill="#fff" stroke="#fbb3ff" stroke-miterlimit="10"/>
        </g>
        <text transform="translate(181.49 359.78)" font-family="OpenSans-Semibold, &apos;Open Sans&apos;" font-size="10" font-weight="600"><tspan x="0" y="0" letter-spacing="0em">I</tspan><tspan x="3.09" y="0" letter-spacing=".01em">n</tspan><tspan x="9.55" y="0" letter-spacing="0em">s</tspan><tspan x="14.47" y="0" letter-spacing="0em">u</tspan><tspan x="20.85" y="0" letter-spacing="0em">r</tspan><tspan x="25.15" y="0" letter-spacing="0em">a</tspan><tspan x="30.99" y="0" letter-spacing="0em">n</tspan><tspan x="37.41" y="0" letter-spacing="0em">c</tspan><tspan x="42.37" y="0">e</tspan></text>
        <circle cx="169.68" cy="356.01" r="9.05" fill="#fff" stroke="#fbb3ff" stroke-miterlimit="10"/>
        <text transform="translate(181.49 359.78)" font-family="OpenSans-Semibold, &apos;Open Sans&apos;" font-size="10" font-weight="600"><tspan x="0" y="0" letter-spacing="0em">I</tspan><tspan x="3.09" y="0" letter-spacing=".01em">n</tspan><tspan x="9.55" y="0" letter-spacing="0em">s</tspan><tspan x="14.47" y="0" letter-spacing="0em">u</tspan><tspan x="20.85" y="0" letter-spacing="0em">r</tspan><tspan x="25.15" y="0" letter-spacing="0em">a</tspan><tspan x="30.99" y="0" letter-spacing="0em">n</tspan><tspan x="37.41" y="0" letter-spacing="0em">c</tspan><tspan x="42.37" y="0">e </tspan><tspan x="50.73" y="0" letter-spacing="0em">(</tspan><tspan x="53.92" y="0" letter-spacing="-.03em">P</tspan><tspan x="59.73" y="0" letter-spacing=".04em">A</tspan><tspan x="66.71" y="0" letter-spacing="-.02em">s</tspan><tspan x="71.34" y="0">)</tspan></text>
        <path d="M173.58,364.85v-2.58c-1.18.57-2.51.9-3.91.9-2.01,0-3.86-.66-5.37-1.77v3.45h9.27Z" fill="none"/>
        <path d="M173.58,362.28v-10.79h-6.39v2.72h-2.89v7.19c1.5,1.11,3.35,1.77,5.37,1.77,1.4,0,2.72-.33,3.91-.9Z" fill="#fff"/>
        <polygon points="166.45 353.46 166.45 351.73 164.73 353.46 166.45 353.46" fill="#fff"/>
        <path d="M166.39,350.73l-2.83,2.83v7.22c.24.22.49.43.75.62v-7.19h2.89v-2.72h6.39v10.79c.26-.12.51-.26.75-.4v-11.14h-7.95ZM166.45,353.46h-1.72l1.72-1.72v1.72Z"/>
        <path d="M172.23,356.76c0,1.15-.95,2.03-2.38,2.03h-.78v1.92h-1.26v-5.98h2.03c1.43,0,2.38.85,2.38,2.03ZM170.97,356.79c0-.59-.47-.95-1.17-.95h-.72v1.89h.72c.7,0,1.17-.33,1.17-.94Z"/>
      </g>
      <text transform="translate(187.09 375.32)" font-family="OpenSans-Regular, &apos;Open Sans&apos;" font-size="10" font-variation-settings="&apos;wght&apos; 400, &apos;wdth&apos; 100"><tspan x="0" y="0" letter-spacing="-.03em">K</tspan><tspan x="5.86" y="0" letter-spacing=".01em">y</tspan><tspan x="10.98" y="0" letter-spacing="0em">l</tspan><tspan x="13.47" y="0" letter-spacing="-.01em">e D</tspan><tspan x="28.64" y="0" letter-spacing="0em">am</tspan><tspan x="43.36" y="0" letter-spacing="0em">b</tspan><tspan x="49.48" y="0" letter-spacing="0em">a</tspan><tspan x="55.01" y="0" letter-spacing="0em">c</tspan><tspan x="59.76" y="0" letter-spacing="0em">he</tspan><tspan x="71.46" y="0" letter-spacing="0em">r</tspan><tspan x="5.38" y="13" letter-spacing="0em">N</tspan><tspan x="12.91" y="13" letter-spacing="-.01em">J </tspan><tspan x="17.99" y="13" letter-spacing="0em">Hi</tspan><tspan x="27.77" y="13" letter-spacing="0em">n</tspan><tspan x="33.88" y="13" letter-spacing="0em">e</tspan><tspan x="39.49" y="13" letter-spacing="-.01em">s </tspan><tspan x="46.66" y="13" letter-spacing="-.03em">(</tspan><tspan x="49.32" y="13" letter-spacing="-.03em">C</tspan><tspan x="55.31" y="13" letter-spacing="0em">C</tspan><tspan x="61.68" y="13" letter-spacing="0em">S</tspan><tspan x="67.21" y="13" letter-spacing="-.01em">)</tspan></text>
    </g>
  </g>
</svg>